<svg width="19" height="14" viewBox="0 0 19 14" fill="none" xmlns="http://www.w3.org/2000/svg">
<path fill-rule="evenodd" clip-rule="evenodd" d="M15.1653 4.42995L15.168 4.43062C15.168 4.43062 15.1676 4.4305 15.1667 4.4303C15.1663 4.4302 15.1658 4.43008 15.1653 4.42995ZM4.32444 4.35686C6.91762 4.19575 11.7483 4.19575 14.3415 4.35686L14.3422 4.3644C14.4047 4.99716 14.4299 5.84143 14.4299 7.01915C14.4299 8.18238 14.4053 9.02689 14.3441 9.66498C11.6962 9.77026 6.97129 9.77027 4.32282 9.66502C4.261 9.03324 4.23602 8.19137 4.23602 7.01915C4.23602 5.84143 4.26123 4.99716 4.32369 4.3644L4.32444 4.35686ZM15.2422 9.61106C15.2422 9.61109 15.2405 9.61148 15.237 9.61215L15.2422 9.61106ZM3.49794 9.60768L3.50063 9.60836C3.49881 9.60793 3.49792 9.60769 3.49794 9.60768ZM0 7.01915C0 11.8412 0.388873 13.63 3.42208 13.8633C6.22196 14.0189 12.4439 14.0189 15.2438 13.8633C18.277 13.7078 18.6659 11.8412 18.6659 7.01915C18.6659 2.19713 18.277 0.408316 15.2438 0.174993C12.4439 -0.0583309 6.22196 -0.0583309 3.42208 0.174993C0.388873 0.408316 0 2.19713 0 7.01915ZM3.49794 4.43062C3.49792 4.43061 3.49884 4.43037 3.50073 4.42992L3.49794 4.43062ZM9.78255 8.73888C8.50415 9.37808 7 8.44846 7 7.01917C7 5.58987 8.50415 4.66026 9.78255 5.29946C11.1997 6.00802 11.1997 8.03032 9.78255 8.73888Z" fill="#46A358" fill-opacity="0.6"/>
</svg>
