<svg width="49" height="60" viewBox="0 0 49 60" fill="none" xmlns="http://www.w3.org/2000/svg">
<ellipse cx="23.5454" cy="36.6321" rx="23.5454" ry="23.3684" fill="#46A358" fill-opacity="0.13"/>
<g clip-path="url(#clip0_42091_2084)">
<path d="M17.8997 29.2783C25.9006 30.329 33.9758 30.4941 42.0139 29.7709C42.5589 29.7225 42.5646 28.8683 42.0139 28.9167C33.9758 29.6399 25.9006 29.4748 17.8997 28.4241C17.3575 28.3529 17.3604 29.21 17.8997 29.2783Z" fill="#727272"/>
<path d="M19.7459 58.1253C23.2043 58.5638 26.6854 58.7774 30.1723 58.729C33.2397 58.6863 36.8607 58.8201 39.7369 57.6157C40.2363 57.405 40.0166 56.5792 39.5087 56.7928C36.5582 58.0285 32.7775 57.8605 29.6216 57.8805C26.3173 57.9032 23.0216 57.6869 19.7431 57.2711C19.2009 57.2028 19.2038 58.057 19.7459 58.1253Z" fill="#727272"/>
<path d="M17.5659 28.6202C13.574 32.316 11.7135 37.8257 12.153 43.1986C12.3784 45.9748 13.1659 48.6741 14.3501 51.1911C15.4287 53.4861 17.018 56.7748 19.4035 57.9678C19.8943 58.2127 20.328 57.4781 19.8343 57.2304C17.6144 56.1199 16.1049 52.9223 15.0891 50.7612C13.9078 48.2413 13.1345 45.505 12.9747 42.7231C12.6894 37.7089 14.4528 32.6663 18.1737 29.2238C18.5788 28.8508 17.9711 28.2472 17.5659 28.6202Z" fill="#727272"/>
<path d="M41.7106 29.6546C45.9223 32.2884 46.3189 37.9688 46.2162 42.442C46.102 47.4306 45.4828 55.3349 39.5078 56.7927C38.9742 56.9237 39.1996 57.7466 39.7361 57.6156C45.9736 56.0951 46.8696 48.2506 47.0579 42.9716C47.232 38.0315 46.7925 31.8242 42.1415 28.9171C41.6735 28.6267 41.2455 29.3641 41.7106 29.6546Z" fill="#727272"/>
<path d="M20.7313 29.2841C17.5897 32.6582 16.2029 38.2932 16.7337 42.8119C17.0418 45.44 17.875 48.0482 18.4942 50.6137C19.1163 53.1848 19.7583 55.736 21.1679 58.0054C21.4589 58.4724 22.1979 58.0424 21.9069 57.5754C20.5829 55.4456 19.9666 53.0652 19.3816 50.6535C18.8166 48.3301 18.1575 46.0038 17.7209 43.6547C16.8934 39.1815 18.1889 33.2704 21.3362 29.8878C21.71 29.4834 21.1051 28.8798 20.7313 29.2841Z" fill="#727272"/>
<path d="M24.9701 29.6403C22.6303 33.7519 21.4005 38.4215 21.4632 43.1538C21.4946 45.426 21.8199 47.701 22.4419 49.8878C23.2152 52.6013 24.3908 55.1754 24.9044 57.9629C25.0043 58.5039 25.8289 58.2733 25.7291 57.7351C25.2811 55.2949 24.3309 53.0227 23.5748 50.6708C22.8414 48.3873 22.402 46.0325 22.3278 43.6322C22.1794 38.8856 23.3607 34.196 25.7091 30.0702C25.983 29.5919 25.244 29.1619 24.9701 29.6403Z" fill="#727272"/>
<path d="M27.4928 30.4573C28.306 35.201 27.3187 39.9532 27.4015 44.7169C27.4386 46.8922 27.9265 48.9167 28.2118 51.0579C28.5086 53.2817 28.0007 55.5681 27.7239 57.7748C27.6554 58.3187 28.5114 58.313 28.5799 57.7748C28.8596 55.5482 29.3646 53.2447 29.0679 51.001C28.7654 48.706 28.2546 46.5306 28.2518 44.1958C28.2461 39.5233 29.1135 34.8849 28.3174 30.2324C28.2232 29.6914 27.3986 29.9192 27.4928 30.4573Z" fill="#727272"/>
<path d="M30.7039 30.0613C32.2076 34.3465 32.3902 38.8681 32.5415 43.3641C32.707 48.2473 32.4616 53.0537 31.5485 57.86C31.4458 58.3981 32.2704 58.6288 32.3731 58.0878C33.3005 53.2074 33.5659 48.3214 33.3975 43.3641C33.2434 38.7941 33.0551 34.1871 31.5285 29.8335C31.3488 29.321 30.5213 29.543 30.7039 30.0613Z" fill="#727272"/>
<path d="M34.3038 30.0813C34.6205 31.0466 35.3053 31.6901 35.8303 32.5386C36.4296 33.5067 36.7577 34.6029 36.9346 35.7191C37.3198 38.1564 37.1372 40.7077 37.1315 43.1649C37.1258 45.8386 37.3312 48.666 36.6379 51.277C36.0272 53.5692 34.6262 55.5452 34.1582 57.8858C34.0498 58.4239 34.8744 58.6517 34.9829 58.1135C35.4851 55.6079 37.0373 53.4866 37.5852 50.9923C38.1473 48.4411 37.9818 45.7589 37.9875 43.1649C37.9932 40.7675 38.1387 38.3159 37.822 35.9326C37.6822 34.8791 37.4425 33.837 36.986 32.8746C36.4781 31.8011 35.4993 30.9839 35.1313 29.8564C34.9572 29.3353 34.1297 29.5574 34.3038 30.0813Z" fill="#727272"/>
<path d="M38.4681 29.9473C40.1687 31.5418 40.9876 34.0874 41.6011 36.2855C42.2403 38.5748 42.0263 41.0178 41.8836 43.3612C41.5954 48.1163 40.7907 52.8657 38.5052 57.1025C38.2427 57.5866 38.9817 58.0194 39.2442 57.5325C41.681 53.0137 42.4942 47.9341 42.7653 42.8658C42.9023 40.3145 43.0136 37.8231 42.2117 35.3658C41.5155 33.2332 40.7479 30.9154 39.073 29.3408C38.6735 28.9678 38.0657 29.5715 38.4681 29.9473Z" fill="#727272"/>
<path d="M20.661 32.0832C20.5725 32.3081 20.4755 32.5302 20.3699 32.7494C20.2358 33.0256 20.3927 33.4043 20.7409 33.3929C20.9891 33.3844 21.186 33.2734 21.3629 33.1054C21.42 33.0513 21.477 32.9943 21.5313 32.9402C21.6026 32.869 21.5084 32.9829 21.5626 32.9174C21.5512 32.9345 21.4913 32.9288 21.5455 32.9345C21.4086 32.7551 21.2716 32.5729 21.1318 32.3935C21.0947 32.5843 21.0547 32.7751 21.0176 32.9687C20.972 33.1936 21.0833 33.43 21.3172 33.4954C21.5284 33.5524 21.7995 33.4243 21.8451 33.1965C21.8822 33.0057 21.9222 32.8149 21.9593 32.6213C22.0163 32.3309 21.8366 32.1088 21.5455 32.0803C21.3087 32.0575 21.0947 32.1828 20.9263 32.3366C20.8664 32.3907 20.815 32.4476 20.7551 32.5017C20.7352 32.5188 20.718 32.5359 20.6981 32.553C20.7066 32.5444 20.7152 32.5387 20.7237 32.5302C20.6809 32.553 20.6809 32.5558 20.7294 32.5359C20.6809 32.5473 20.6838 32.5501 20.738 32.5359C20.8607 32.7494 20.9834 32.963 21.1089 33.1794C21.2459 32.8947 21.3715 32.6042 21.4856 32.3109C21.5683 32.0945 21.3943 31.8411 21.186 31.7842C20.9463 31.7187 20.7466 31.8668 20.661 32.0832Z" fill="#727272"/>
<path d="M18.5426 37.1943C18.5026 37.4335 18.4627 37.6727 18.4227 37.909C18.3913 38.0998 18.4427 38.2877 18.6196 38.3902C18.7765 38.4813 19.0134 38.4642 19.1389 38.3247C19.2217 38.2307 19.3044 38.1368 19.3872 38.0428C19.4414 37.9802 19.5184 37.8634 19.5841 37.8293C19.5127 37.8492 19.4414 37.8691 19.3672 37.8862C19.3815 37.8834 19.3986 37.8834 19.4129 37.8805C19.3415 37.8606 19.2702 37.8406 19.196 37.8236C19.2074 37.8321 19.2188 37.8406 19.2302 37.8492C19.1589 37.7268 19.0876 37.6043 19.0191 37.479C19.0419 37.7239 18.9734 37.9973 18.9449 38.245C18.9049 38.6009 19.3301 38.7319 19.5898 38.6151C19.9265 38.4585 20.1519 38.1709 20.2717 37.8264C20.032 37.8891 19.7952 37.9517 19.5555 38.0143C19.547 37.9602 19.5384 37.9061 19.5298 37.852C19.39 38.3845 20.2175 38.6123 20.3545 38.0798C20.4173 37.8378 20.3602 37.573 20.1604 37.4107C19.9036 37.2028 19.5584 37.2769 19.4442 37.5986C19.3929 37.741 19.2873 37.815 19.156 37.8777C19.3701 38.0001 19.5841 38.1225 19.8009 38.2478C19.8437 37.8663 20.0492 37.1886 19.5241 37.0434C19.0819 36.921 18.7708 37.4449 18.5311 37.7211C18.7708 37.8606 19.0077 37.9973 19.2474 38.1368C19.2873 37.8976 19.3273 37.6584 19.3672 37.4221C19.4043 37.1943 19.3073 36.9608 19.0676 36.8953C18.865 36.8412 18.5797 36.9665 18.5426 37.1943Z" fill="#727272"/>
<path d="M18.1731 42.339C18.2016 42.675 18.233 43.0109 18.2615 43.3441C18.3043 43.8196 18.9463 43.9306 19.1033 43.458C19.1889 43.196 19.3087 42.9597 19.46 42.7262C19.2003 42.692 18.9378 42.6579 18.6781 42.6237C18.778 42.8714 18.8465 43.1248 18.8836 43.3925C18.9264 43.6943 19.2945 43.7456 19.5113 43.6487C19.6197 43.6003 19.7082 43.5064 19.7653 43.4039C19.791 43.3583 19.8109 43.3042 19.828 43.2558C19.8366 43.2302 19.8423 43.2046 19.8509 43.1789C19.8651 43.1362 19.8594 43.1391 19.8395 43.1875C19.7767 43.2245 19.7139 43.2615 19.6511 43.2985C19.6654 43.2928 19.6825 43.29 19.6968 43.2843C19.6197 43.2843 19.5456 43.2843 19.4685 43.2843C19.4628 43.2814 19.4571 43.2786 19.4543 43.2729C19.4029 43.2216 19.3515 43.1704 19.3002 43.1191C19.3087 43.1305 19.3144 43.1419 19.323 43.1533C19.3087 43.0423 19.2945 42.9341 19.2802 42.823C19.2773 42.8373 19.2773 42.8515 19.2745 42.8629C19.2431 43.0907 19.3287 43.3213 19.5741 43.3896C19.7738 43.4437 20.0706 43.3213 20.102 43.0907C20.1277 42.9056 20.1134 42.7376 19.9764 42.5981C19.8623 42.4842 19.6882 42.4301 19.5284 42.4472C19.3629 42.4671 19.2174 42.5639 19.129 42.7034C19.0919 42.7632 19.0405 42.8458 19.0377 42.9141C19.0348 43.0138 18.992 42.9426 19.0833 42.9027C19.2916 42.9882 19.5028 43.0736 19.7111 43.159C19.674 42.8942 19.6055 42.6408 19.5056 42.3902C19.3686 42.0542 18.9349 41.9574 18.7238 42.2877C18.5355 42.581 18.3899 42.8942 18.2815 43.2216C18.5611 43.2587 18.8408 43.2985 19.1233 43.3355C19.0947 42.9996 19.0633 42.6636 19.0348 42.3304C19.0148 42.0998 18.8522 41.9033 18.6068 41.9033C18.3871 41.9119 18.1531 42.1083 18.1731 42.339Z" fill="#727272"/>
<path d="M19.204 48.3637C19.2325 48.8563 19.4807 49.2863 19.9116 49.5369C20.197 49.6992 20.5508 49.4913 20.5565 49.1667C20.5593 48.9161 20.6164 48.6855 20.7134 48.4549C20.4737 48.5175 20.2369 48.5801 19.9972 48.6428C20.1142 48.7852 20.2398 48.9104 20.3796 49.0272C20.6078 49.218 21.0244 49.1809 21.0958 48.8393C21.1129 48.7624 21.1329 48.6969 21.1586 48.6257C20.9189 48.6883 20.682 48.751 20.4423 48.8136C20.468 48.7994 20.4823 48.8165 20.4794 48.862C20.5708 49.0756 20.8846 49.1211 21.0644 49.0158C21.2841 48.8877 21.3098 48.6456 21.2185 48.4321C21.1814 48.3467 21.1215 48.2698 21.0473 48.21C20.7819 48.0021 20.4566 48.079 20.3311 48.3979C20.3025 48.4691 20.2826 48.5374 20.2683 48.6115C20.508 48.5488 20.7448 48.4862 20.9845 48.4235C20.8447 48.3068 20.7191 48.1787 20.6021 48.0391C20.3739 47.7601 19.9972 47.968 19.8859 48.2271C19.7604 48.526 19.7033 48.8421 19.6976 49.1667C19.9116 49.0443 20.1256 48.9218 20.3425 48.7965C20.177 48.7026 20.0686 48.5545 20.0571 48.3609C20.0286 47.8199 19.1726 47.8142 19.204 48.3637Z" fill="#727272"/>
<path d="M20.9672 54.2213C21.0671 54.4776 21.1869 54.7139 21.3496 54.9389C21.6035 55.2862 22.1086 55.1581 22.1485 54.7225C22.1514 54.6968 22.197 54.3808 22.1799 54.3665C22.0572 54.4434 21.9374 54.5203 21.8147 54.5972C21.8432 54.637 21.8689 54.6741 21.9003 54.7111C22.0087 54.8478 22.1428 54.9645 22.3169 55.0129C22.451 55.0471 22.6079 55.03 22.7249 54.956C22.802 54.9047 22.8562 54.8449 22.8961 54.7623C22.9104 54.7282 22.9247 54.694 22.9389 54.6598C23.0046 54.4548 22.879 54.4206 22.5651 54.5573C22.7363 55.0755 23.5638 54.8534 23.3898 54.3295C23.2699 53.9708 22.9218 53.7373 22.5423 53.8797C22.3882 53.9394 22.2541 54.0533 22.1799 54.2014C22.1571 54.247 22.0743 54.4434 22.1029 54.5004C22.2684 54.4064 22.431 54.3096 22.5965 54.2156C22.5737 54.1872 22.5509 54.1615 22.5309 54.1331C22.3939 53.8569 21.9973 53.7003 21.712 53.8028C21.3096 53.9451 21.3268 54.3722 21.2954 54.7253C21.5607 54.6541 21.8261 54.5829 22.0943 54.5089C21.9773 54.3495 21.8718 54.1815 21.7976 53.9964C21.5921 53.4896 20.7646 53.7088 20.9672 54.2213Z" fill="#727272"/>
<path d="M25.5421 32.1994C25.234 32.43 24.9772 32.7034 24.8088 33.0536C24.5891 33.5092 25.0999 33.8679 25.4822 33.5718C25.5735 33.5006 25.6648 33.4294 25.7562 33.3583C25.7961 33.3269 25.836 33.2956 25.8788 33.2643C25.8988 33.2472 25.9188 33.233 25.9388 33.2159C26.0101 33.1646 25.973 33.1732 25.8275 33.2387C25.7562 33.2187 25.6848 33.1988 25.6106 33.1817C25.6192 33.1874 25.6277 33.1931 25.6363 33.1988C25.5849 33.1476 25.5336 33.0963 25.4822 33.0451C25.4737 33.008 25.4623 32.9739 25.4537 32.9369C25.4565 32.897 25.4565 32.8913 25.448 32.9255C25.428 32.9397 25.4223 33.0365 25.4223 33.0507C25.4023 33.1817 25.4137 33.3099 25.4822 33.4294C25.545 33.5376 25.6563 33.6345 25.779 33.6658C25.8303 33.68 25.896 33.6857 25.9502 33.6857C26.0015 33.6857 26.0472 33.6772 26.0929 33.6601C26.1528 33.643 26.1328 33.6373 26.0301 33.643C25.9673 33.606 25.9045 33.569 25.8418 33.532C25.8503 33.5405 25.8589 33.549 25.8674 33.5576C25.8303 33.4949 25.7932 33.4323 25.7562 33.3697C25.759 33.3782 25.7619 33.3896 25.7647 33.3981C25.779 33.2871 25.7932 33.1789 25.8075 33.0678C25.8018 33.0764 25.799 33.0849 25.7932 33.0935C25.5336 33.5775 26.2726 34.0103 26.5323 33.5234C26.6436 33.3184 26.6179 33.0878 26.4438 32.9255C26.3525 32.84 26.2298 32.7888 26.1043 32.7859C26.0329 32.7831 25.9502 32.8287 25.8874 32.823C25.9587 32.8429 26.0301 32.8628 26.1043 32.8799C26.0929 32.8714 26.0814 32.8628 26.0729 32.8571C26.1242 32.9084 26.1756 32.9596 26.227 33.0109C26.2213 32.9995 26.2156 32.9881 26.2098 32.9767C26.2298 33.0479 26.2498 33.1191 26.2669 33.1931C26.2612 33.139 26.2698 33.1675 26.2897 33.0878C26.3126 32.9881 26.3154 32.8799 26.2926 32.7774C26.2441 32.5724 26.09 32.4243 25.8846 32.3873C25.6705 32.3475 25.525 32.4585 25.3624 32.5838C25.1997 32.7091 25.0371 32.8372 24.8744 32.9625C25.0999 33.1362 25.3224 33.307 25.5479 33.4807C25.6506 33.27 25.7818 33.0764 25.973 32.934C26.1585 32.7973 26.2526 32.5638 26.1271 32.3503C26.0215 32.1709 25.7305 32.0627 25.5421 32.1994Z" fill="#727272"/>
<path d="M23.8665 37.0063C23.7952 37.348 23.7267 37.6897 23.6553 38.0342C23.5669 38.4699 24.0406 38.7204 24.3715 38.4499C24.4686 38.3702 24.5542 38.2706 24.6169 38.1624C24.6597 38.0883 24.7111 37.9374 24.7339 37.9004C24.6826 37.9517 24.6312 38.0029 24.5798 38.0542C24.5941 38.0456 24.6055 38.0371 24.6198 38.0257C24.5485 38.0456 24.4771 38.0655 24.4029 38.0826C24.4201 38.0798 24.4372 38.0798 24.4543 38.0769C24.383 38.057 24.3116 38.0371 24.2374 38.02C24.169 37.9887 24.1661 37.8776 24.1861 38.0228C24.1918 38.0599 24.2003 38.0912 24.2118 38.1253C24.2517 38.2535 24.323 38.3674 24.4315 38.4471C24.5313 38.5211 24.6483 38.561 24.7739 38.5581C24.8509 38.5553 24.9223 38.5354 24.9907 38.5012C25.0278 38.487 25.0592 38.467 25.0878 38.4414C25.1619 38.3901 25.142 38.393 25.0307 38.4442C24.9594 38.4243 24.888 38.4044 24.8138 38.3873C24.8252 38.393 24.8281 38.3987 24.8367 38.4215C25.0193 38.9368 25.8468 38.7147 25.6613 38.1937C25.5814 37.9687 25.4644 37.7609 25.2447 37.6498C25.1306 37.59 24.9879 37.573 24.8623 37.6014C24.7368 37.6299 24.6626 37.7125 24.5542 37.7637C24.6255 37.7438 24.6968 37.7239 24.771 37.7068C24.7568 37.7068 24.7396 37.7068 24.7254 37.7068C24.7967 37.7267 24.868 37.7466 24.9422 37.7637C25.0193 37.8976 25.0421 37.9175 25.0107 37.8235C25.005 37.7865 24.9993 37.7495 24.9936 37.7125C24.9736 37.6384 24.9422 37.5616 24.9023 37.4989C24.7967 37.3338 24.6226 37.2256 24.4258 37.2284C24.2317 37.2313 24.0548 37.3423 23.9635 37.5103C23.8865 37.6527 23.8922 37.7381 23.7609 37.8463C24.0006 37.9858 24.2374 38.1225 24.4771 38.262C24.5485 37.9203 24.6169 37.5786 24.6883 37.237C24.8024 36.696 23.9778 36.4682 23.8665 37.0063Z" fill="#727272"/>
<path d="M23.535 41.3709C23.4466 41.8294 23.3895 42.2906 23.3752 42.7548C23.3638 43.0794 23.7462 43.2844 24.0201 43.1249C24.1457 43.0509 24.237 42.9512 24.3055 42.8231C24.3311 42.7747 24.4053 42.6636 24.3911 42.6209C24.3882 42.6152 24.3625 42.6523 24.3739 42.6466C24.3026 42.6665 24.2313 42.6864 24.1571 42.7035C24.1514 42.7064 24.1428 42.7064 24.1371 42.7092C24.0857 42.658 24.0344 42.6067 23.983 42.5554C24.0315 42.6181 24.0258 42.6124 24.0315 42.6779C24.0629 43.0281 24.4852 43.2616 24.762 42.9797C24.7934 42.9455 24.8248 42.9142 24.859 42.8829C24.7991 42.9114 24.7363 42.9057 24.6764 42.8715C24.6393 42.8089 24.6022 42.7462 24.5651 42.6836C24.5708 42.7007 24.5765 42.7177 24.5851 42.7348C24.665 42.9512 24.8761 43.0993 25.113 43.0338C25.3213 42.9769 25.4925 42.7263 25.4126 42.507C25.19 41.9034 24.5423 41.9803 24.1571 42.3761C24.3996 42.4757 24.645 42.5782 24.8876 42.6779C24.8533 42.265 24.6479 41.818 24.1571 41.8493C23.9573 41.8607 23.7804 41.9774 23.6749 42.1454C23.6378 42.2052 23.6121 42.2736 23.5835 42.339C23.5522 42.4102 23.4979 42.4359 23.5864 42.3846C23.8004 42.507 24.0144 42.6295 24.2313 42.7548C24.2427 42.3647 24.2855 41.9803 24.3597 41.5959C24.4653 41.0606 23.6406 40.8328 23.535 41.3709Z" fill="#727272"/>
<path d="M23.9606 46.2485C24.0576 46.63 24.1746 47.0031 24.3116 47.3704C24.4229 47.6693 24.7795 47.7946 25.0278 47.5583C25.1362 47.4529 25.2104 47.3305 25.2475 47.1824C25.2618 47.1226 25.2732 47.0515 25.276 46.9917C25.2846 46.8094 25.2646 46.9603 25.2817 46.9518C25.2104 46.9717 25.1391 46.9917 25.0649 47.0087C25.0848 47.0087 25.102 47.0059 25.1219 47.0059C25.0506 46.986 24.9793 46.966 24.9051 46.949C24.848 46.9233 24.8651 46.8977 24.9108 46.9774C24.9336 47.0173 24.9536 47.0515 24.9821 47.0885C25.0706 47.2024 25.179 47.2792 25.3245 47.2992C25.4529 47.3163 25.5756 47.2849 25.6841 47.2109C25.744 47.1682 25.7982 47.1198 25.8381 47.0572C25.8553 47.023 25.8724 46.9888 25.8867 46.9546C25.9437 46.8436 25.8952 46.8721 25.7411 47.0429C25.6641 47.0429 25.5899 47.0429 25.5129 47.0429C25.4786 47.0144 25.4472 46.9831 25.413 46.9546C25.393 46.8835 25.373 46.8123 25.3559 46.7382C25.3559 46.7553 25.3559 46.7724 25.3559 46.7895C25.3474 47.339 26.2034 47.339 26.2119 46.7895C26.2177 46.5019 26.0179 46.277 25.7411 46.22C25.5928 46.1887 25.4444 46.22 25.3217 46.3083C25.2618 46.351 25.2132 46.3994 25.1733 46.4592C25.1647 46.4763 25.1562 46.4962 25.1448 46.5133C25.0706 46.6557 25.0906 46.6528 25.2075 46.5048C25.2789 46.4848 25.3502 46.4649 25.4244 46.4478C25.4101 46.4507 25.3959 46.4507 25.3816 46.4535C25.4529 46.4734 25.5243 46.4934 25.5985 46.5105C25.7212 46.5703 25.6584 46.5503 25.6127 46.4706C25.5785 46.408 25.5328 46.3482 25.4815 46.3026C25.3188 46.1574 25.1048 46.1204 24.9022 46.1916C24.7396 46.2485 24.6169 46.3738 24.5341 46.519C24.4885 46.6016 24.4657 46.6841 24.4485 46.7753C24.44 46.8151 24.4485 46.929 24.4229 46.9546C24.6625 47.0173 24.8994 47.0799 25.1391 47.1426C25.0021 46.7753 24.8851 46.3994 24.7881 46.0207C24.6483 45.4911 23.8236 45.716 23.9606 46.2485Z" fill="#727272"/>
<path d="M24.3918 50.3293C24.5459 50.782 24.7428 51.2177 24.9853 51.6277C25.1594 51.921 25.5446 51.8868 25.7244 51.6277C25.7729 51.5565 25.8071 51.4825 25.83 51.3999C25.8328 51.3743 25.8357 51.3515 25.8414 51.3259C25.887 51.1607 25.8471 51.1664 25.7158 51.3458C25.6388 51.3458 25.5646 51.3458 25.4875 51.3458C25.3677 51.3088 25.4219 51.3173 25.4847 51.3857C25.5303 51.4341 25.5874 51.4853 25.6473 51.5195C25.77 51.5878 25.9156 51.6134 26.0554 51.6021C26.375 51.5793 26.5947 51.3686 26.7002 51.081C26.8914 50.5656 26.0639 50.3407 25.8756 50.8532C25.9298 50.7108 26.0639 50.7906 26.0411 50.7222C26.024 50.6738 25.9241 50.6083 25.8785 50.5827C25.7386 50.503 25.5703 50.4859 25.4191 50.5371C25.2792 50.5827 25.168 50.6881 25.0966 50.8162C25.0339 50.9301 25.051 51.1009 24.9825 51.1977C25.2279 51.1977 25.4761 51.1977 25.7215 51.1977C25.5132 50.8475 25.3449 50.4887 25.2136 50.1043C25.0424 49.5861 24.2149 49.8082 24.3918 50.3293Z" fill="#727272"/>
<path d="M25.5196 55.2009C25.5224 55.4372 25.5567 55.6736 25.6308 55.8957C25.6851 56.058 25.8135 56.1776 25.9875 56.2003C26.1445 56.2203 26.3413 56.1491 26.4127 55.9953C26.4612 55.8928 26.5097 55.7903 26.5582 55.6907C26.581 55.6422 26.6039 55.5967 26.6238 55.5483C26.6352 55.5255 26.6467 55.4999 26.6581 55.4771C26.6809 55.4344 26.6809 55.4344 26.6581 55.4771C26.5953 55.5141 26.5325 55.5511 26.4697 55.5882C26.4783 55.5853 26.4897 55.5796 26.4983 55.5768C26.4212 55.5768 26.3471 55.5768 26.27 55.5768C26.2557 55.5711 26.2386 55.5625 26.2244 55.5568C26.173 55.5056 26.1216 55.4543 26.0703 55.4031C26.0275 55.3319 26.0674 55.3917 26.0845 55.4401C26.0988 55.4856 26.1159 55.5284 26.1302 55.5739C26.1616 55.6622 26.193 55.7533 26.2215 55.8416C26.2957 56.0608 26.5154 56.2032 26.7494 56.1405C26.9605 56.0836 27.1232 55.833 27.049 55.6138C26.9263 55.2607 26.8236 54.6798 26.3271 54.7453C25.9419 54.7966 25.8135 55.2636 25.6708 55.5654C25.9305 55.5995 26.193 55.6337 26.4526 55.6679C26.3984 55.4999 26.3727 55.3632 26.3699 55.1981C26.367 54.976 26.1758 54.7596 25.9419 54.771C25.7164 54.7823 25.5167 54.9617 25.5196 55.2009Z" fill="#727272"/>
<path d="M29.4494 55.7193C29.4266 55.9129 29.4038 56.1094 29.381 56.303C29.3581 56.4853 29.5293 56.6703 29.6948 56.7159C29.8889 56.77 30.0686 56.676 30.1771 56.5194C30.2541 56.4084 30.3311 56.3002 30.4082 56.1891C30.4424 56.1379 30.4795 56.0895 30.5138 56.0382C30.528 56.0183 30.5423 55.9984 30.5566 55.9784C30.6193 55.893 30.6108 55.8987 30.5337 55.9955C30.4624 56.0154 30.3911 56.0354 30.3169 56.0525C30.3311 56.0525 30.3426 56.0525 30.3568 56.0525C30.2855 56.0325 30.2142 56.0126 30.14 55.9955C30.0544 55.8475 30.0258 55.819 30.0544 55.9101C30.0629 55.9443 30.0686 55.9813 30.0772 56.0155C30.0915 56.0866 30.1057 56.155 30.1229 56.2262C30.1542 56.3742 30.1685 56.5479 30.2455 56.6817C30.3197 56.807 30.4424 56.9152 30.5851 56.9551C30.8048 57.0149 30.9846 56.9038 31.113 56.733C31.2528 56.5479 31.1415 56.2546 30.9589 56.1493C30.7392 56.0211 30.5138 56.118 30.374 56.303C30.3682 56.3116 30.3625 56.3201 30.3568 56.3258C30.4795 56.2546 30.6022 56.1834 30.7278 56.1151C30.7192 56.1151 30.7107 56.118 30.7021 56.118C30.7734 56.1379 30.8448 56.1578 30.919 56.1749C30.9931 56.2119 31.0388 56.4198 30.996 56.2091C30.9846 56.1493 30.9703 56.0923 30.9589 56.0325C30.9361 55.9272 30.9161 55.8218 30.8933 55.7165C30.8419 55.4944 30.7078 55.278 30.4738 55.2125C30.2142 55.1413 30.0087 55.2894 29.8632 55.483C29.7177 55.6795 29.5807 55.8816 29.4409 56.0809C29.7063 56.1521 29.9716 56.2233 30.2398 56.2973C30.2627 56.1037 30.2855 55.9073 30.3083 55.7136C30.334 55.483 30.0915 55.2865 29.8803 55.2865C29.6264 55.2922 29.478 55.4915 29.4494 55.7193Z" fill="#727272"/>
<path d="M29.8622 47.9203C29.7566 48.3759 29.7052 48.8428 29.7138 49.3098C29.7195 49.7113 30.313 49.9191 30.5128 49.5262C30.5984 49.3554 30.684 49.1874 30.7696 49.0165C30.8323 48.8912 30.878 48.7346 30.9921 48.6464C30.9294 48.6834 30.8666 48.7204 30.8038 48.7574C30.8038 48.7546 30.8038 48.7517 30.8067 48.7489C30.6697 48.6435 30.5327 48.541 30.3929 48.4357C30.4471 48.6378 30.5014 48.84 30.5556 49.0422C30.624 49.2956 30.9522 49.4493 31.1833 49.2984C31.2233 49.2728 31.2632 49.2443 31.3032 49.2187C31.7597 48.9169 31.3317 48.1766 30.8723 48.4812C30.8323 48.5069 30.7924 48.5353 30.7525 48.561C30.9608 48.6464 31.1719 48.7318 31.3802 48.8172C31.326 48.6151 31.2718 48.4129 31.2176 48.2107C31.1691 48.0313 30.9921 47.8947 30.8038 47.8975C30.2017 47.9089 29.9963 48.6549 29.7737 49.0991C30.0391 49.1703 30.3045 49.2415 30.5727 49.3155C30.567 48.9197 30.6012 48.5382 30.6897 48.1509C30.8095 47.6128 29.9849 47.385 29.8622 47.9203Z" fill="#727272"/>
<path d="M29.0438 41.5309C29.0638 41.8668 29.0809 42.2 29.1009 42.536C29.1237 42.9574 29.6659 43.1197 29.8998 42.7524C30.0653 42.4904 30.2308 42.2313 30.3963 41.9693C30.1509 41.9693 29.9027 41.9693 29.6573 41.9693C29.7172 42.0718 29.7543 42.1658 29.76 42.2854C29.78 42.6613 30.2109 42.8406 30.4905 42.5872C30.7074 42.3936 30.8472 42.1601 30.9527 41.8896C30.7444 41.975 30.5333 42.0605 30.325 42.1459C30.325 42.1516 30.325 42.1573 30.3221 42.1601C30.285 42.0975 30.248 42.0348 30.2109 41.9722C30.2194 41.9893 30.2251 42.0092 30.2337 42.0263C30.3221 42.2398 30.5162 42.3908 30.7616 42.3253C30.9613 42.2712 31.1496 42.0149 31.0612 41.7985C30.987 41.6248 30.9099 41.5195 30.7559 41.4056C30.5133 41.2262 30.2166 41.4312 30.1281 41.6618C30.0767 41.7928 29.9883 41.8896 29.8856 41.9836C30.1281 42.0832 30.3735 42.1857 30.616 42.2854C30.6018 42.0177 30.5333 41.77 30.3963 41.5394C30.228 41.2575 29.8285 41.2689 29.6573 41.5394C29.4918 41.8014 29.3263 42.0605 29.1608 42.3224C29.4262 42.3936 29.6915 42.4648 29.9598 42.5388C29.9398 42.2028 29.9227 41.8697 29.9027 41.5337C29.8684 40.9842 29.0124 40.9813 29.0438 41.5309Z" fill="#727272"/>
<path d="M29.275 35.8845C29.2493 36.1009 29.2379 36.3173 29.2436 36.5337C29.2522 36.8298 29.6117 37.1031 29.8885 36.9038C30.0312 36.8013 30.1196 36.6846 30.1681 36.5166C30.1795 36.4767 30.191 36.4312 30.1967 36.3913C30.2024 36.3543 30.2252 36.3514 30.1938 36.3799C30.0454 36.5166 29.8885 36.713 29.6517 36.4283C29.6773 36.4596 29.6688 36.4568 29.6517 36.4198C29.6716 36.4625 29.6859 36.5109 29.7059 36.5536C29.7401 36.6276 29.7915 36.6931 29.8486 36.7501C30.0255 36.9237 30.288 36.9579 30.502 36.8355C30.7046 36.7216 30.7702 36.4482 30.6561 36.2518C30.5362 36.0496 30.2737 35.9841 30.0711 36.098C30.0626 36.1037 30.0511 36.1094 30.0426 36.1151C30.1139 36.0952 30.1853 36.0752 30.2594 36.0582C30.2823 36.0553 30.4877 36.1692 30.4706 36.1749C30.482 36.1977 30.482 36.1977 30.4735 36.1777C30.4649 36.155 30.4563 36.1322 30.4449 36.1094C30.4107 36.0268 30.3707 35.95 30.308 35.8816C30.1681 35.7364 29.9513 35.6652 29.7544 35.7279C29.5689 35.7848 29.4462 35.9329 29.3863 36.1123C29.372 36.1521 29.3663 36.192 29.3549 36.2347C29.3492 36.2546 29.3435 36.2717 29.3406 36.2916C29.3292 36.3287 29.3292 36.3287 29.3435 36.2916C29.3606 36.2375 29.3977 36.1948 29.4548 36.1664C29.6688 36.2888 29.8828 36.4112 30.0997 36.5365C30.0939 36.3201 30.1054 36.1037 30.131 35.8873C30.1596 35.6652 29.9142 35.4517 29.703 35.4602C29.4491 35.4716 29.3064 35.6481 29.275 35.8845Z" fill="#727272"/>
<path d="M29.0123 31.5048C28.9324 31.818 28.9723 32.1398 29.1407 32.416C29.3404 32.752 29.7998 32.6495 29.9225 32.3135C29.9682 32.1882 29.8997 32.3903 29.9425 32.2622C29.9596 32.2138 29.9739 32.2366 29.9311 32.2565C29.7998 32.3249 29.6229 32.2793 29.583 32.1085C29.6372 32.3334 29.8911 32.4672 30.1109 32.4074C30.3391 32.3448 30.4647 32.1085 30.4105 31.8807C30.3334 31.5561 29.9796 31.3824 29.6629 31.4564C29.3518 31.5333 29.2006 31.8038 29.0979 32.0828C29.3576 32.0487 29.6201 32.0145 29.8797 31.9803C29.8369 31.9063 29.8312 31.912 29.8227 31.8237C29.8284 31.8693 29.8255 31.8123 29.8255 31.7981C29.8312 31.6728 29.8084 31.8493 29.8369 31.7269C29.8911 31.5105 29.7656 31.2543 29.5373 31.2002C29.3176 31.1546 29.0722 31.2713 29.0123 31.5048Z" fill="#727272"/>
<path d="M16.7797 30.497C16.6542 30.6621 16.5401 30.8358 16.4402 31.018C16.2718 31.317 16.5572 31.784 16.9224 31.6445C17.0537 31.5961 17.1821 31.5448 17.3133 31.4964C17.1393 31.3967 16.9624 31.2971 16.7855 31.1974C16.8083 31.2629 16.8197 31.3056 16.8168 31.3711C16.814 31.5875 17.0166 31.8181 17.2449 31.7982C17.4589 31.7811 17.6415 31.7299 17.8327 31.6388C18.041 31.5391 18.0952 31.2401 17.9867 31.0551C17.8612 30.8415 17.6101 30.8016 17.4018 30.9013C17.359 30.9212 17.2791 30.9412 17.2449 30.944C17.3875 31.0864 17.5302 31.2287 17.6729 31.3711C17.6757 31.2344 17.6557 31.0978 17.6101 30.9696C17.5388 30.7675 17.3133 30.5852 17.0822 30.6707C16.951 30.7191 16.8225 30.7703 16.6913 30.8187C16.8511 31.0266 17.0137 31.2373 17.1735 31.4451C17.2762 31.2629 17.3875 31.0892 17.5131 30.9241C17.6529 30.739 17.5416 30.4457 17.359 30.3404C17.145 30.2179 16.9196 30.3119 16.7797 30.497Z" fill="#727272"/>
<path d="M14.3559 35.2919C14.1933 35.6478 14.0534 36.0123 13.9393 36.3881C13.868 36.6216 14.0249 36.838 14.2389 36.9149C14.4215 36.9804 14.6184 36.9405 14.7782 36.838C14.8467 36.7924 14.8924 36.7469 14.9437 36.6871C15.1406 36.4536 14.8695 36.7554 14.7097 36.559C14.6726 36.4963 14.6355 36.4337 14.5985 36.371C14.5756 36.2913 14.5927 36.4564 14.5927 36.4536C14.6013 36.5191 14.6184 36.5874 14.6527 36.6472C14.7183 36.7583 14.8381 36.8494 14.9608 36.8836C15.192 36.9462 15.4887 36.8579 15.5886 36.6244C15.6799 36.4137 15.6514 36.166 15.4345 36.0407C15.2547 35.9354 14.9409 35.9809 14.8496 36.1945C14.8581 36.1831 14.8667 36.1717 14.8781 36.1632C14.9409 36.1262 15.0036 36.0891 15.0664 36.0521C15.152 36.0778 15.2376 36.1034 15.3232 36.129C15.3603 36.1916 15.3974 36.2543 15.4345 36.3169C15.4573 36.3967 15.4402 36.2002 15.4345 36.1803C15.4117 36.0948 15.3717 36.018 15.3147 35.9553C15.2091 35.8443 15.0721 35.7788 14.918 35.7702C14.7782 35.7645 14.6498 35.8044 14.5357 35.8841C14.4815 35.9211 14.4358 35.9639 14.393 36.0151C14.2161 36.2201 14.3388 36.0464 14.47 36.092C14.5699 36.2685 14.6698 36.4422 14.7697 36.6187C14.861 36.3141 14.9694 36.018 15.1007 35.7275C15.1948 35.5168 15.1606 35.2691 14.9466 35.1438C14.7582 35.0328 14.4501 35.0812 14.3559 35.2919Z" fill="#727272"/>
<path d="M13.4076 40.3288C13.3163 40.8185 13.3163 41.2941 13.4133 41.7838C13.4618 42.0258 13.7244 42.1169 13.9412 42.0828C14.0668 42.0628 14.1838 41.9917 14.2722 41.8977C14.3093 41.8578 14.3435 41.8094 14.3749 41.7639C14.3921 41.7382 14.4063 41.7126 14.4206 41.6841C14.4463 41.6443 14.4377 41.6471 14.3892 41.687C14.3122 41.687 14.238 41.687 14.1609 41.687C14.1809 41.6927 14.2009 41.6984 14.2209 41.7041C14.1581 41.6671 14.0953 41.63 14.0325 41.593C14.0011 41.5275 13.9983 41.5304 14.0268 41.6016C14.0411 41.6357 14.0554 41.6699 14.0696 41.7041C14.1153 41.7895 14.178 41.8578 14.2579 41.9091C14.4491 42.0372 14.6232 42.0287 14.8286 41.9347C15.0398 41.8407 15.0911 41.5332 14.9827 41.351C14.8572 41.1346 14.6089 41.1033 14.3978 41.1972C14.3835 41.2029 14.3664 41.2115 14.3521 41.2172C14.4634 41.2029 14.5718 41.1887 14.6831 41.1745C14.666 41.1688 14.6489 41.1659 14.6317 41.1602C14.6945 41.1972 14.7573 41.2343 14.8201 41.2713C14.8372 41.3282 14.8372 41.3339 14.8229 41.2912C14.8087 41.2456 14.7915 41.2029 14.7716 41.1631C14.7459 41.1147 14.7173 41.0663 14.6774 41.0264C14.5576 40.8983 14.3921 40.8385 14.218 40.8556C14.0668 40.8698 13.9327 40.9438 13.8271 41.052C13.7757 41.1033 13.7329 41.1631 13.6958 41.2257C13.6873 41.2428 13.6758 41.2599 13.6673 41.277C13.6131 41.3567 13.6273 41.3482 13.7129 41.2542C13.887 41.3538 14.0639 41.4535 14.2408 41.5532C14.1752 41.2229 14.1723 40.884 14.2351 40.5537C14.2779 40.326 14.1723 40.0925 13.9355 40.027C13.7244 39.9729 13.4504 40.101 13.4076 40.3288Z" fill="#727272"/>
<path d="M14.018 46.4937C14.1378 46.7329 14.2548 46.9721 14.3746 47.2112C14.4802 47.4219 14.7684 47.4704 14.9596 47.365C15.1137 47.2796 15.2193 47.1429 15.2678 46.9721C15.2906 46.8952 15.3049 46.7984 15.2963 46.7187C15.2877 46.6275 15.3277 46.6532 15.2792 46.6959C15.2164 46.7329 15.1536 46.7699 15.0909 46.8069C15.0851 46.8098 15.0794 46.8098 15.0737 46.8126C15.0024 46.7927 14.9311 46.7728 14.8569 46.7557C15.0053 46.8411 15.0766 46.9778 15.2934 46.9778C15.5503 46.9778 15.6073 46.8269 15.7614 46.6759C15.6986 46.713 15.6359 46.75 15.5731 46.787C15.4903 46.7357 15.4076 46.6845 15.3248 46.6304C15.3591 46.8582 15.6473 46.9835 15.8527 46.9294C16.0981 46.861 16.1866 46.6332 16.1523 46.4026C16.1124 46.1463 15.8698 45.9556 15.6187 45.9299C15.3248 45.9015 15.1337 46.0609 14.9938 46.3001C15.0452 46.2488 15.0966 46.1976 15.1479 46.1463C15.1337 46.1577 15.1165 46.1691 15.1023 46.1805C15.1736 46.1606 15.2449 46.1406 15.3191 46.1236C15.3049 46.1236 15.2877 46.1236 15.2735 46.1236C15.3448 46.1435 15.4161 46.1634 15.4903 46.1805C15.439 46.152 15.3049 46.0068 15.1907 45.9755C15.0281 45.9299 14.8569 45.9641 14.7228 46.0638C14.6029 46.152 14.5202 46.283 14.4774 46.4225C14.4488 46.5108 14.4802 46.6902 14.4346 46.7528C14.4859 46.7016 14.5373 46.6503 14.5887 46.5991C14.5715 46.6076 14.5544 46.619 14.5344 46.6275C14.7285 46.6788 14.9254 46.73 15.1194 46.7813C14.9995 46.5421 14.8826 46.3029 14.7627 46.0638C14.5116 45.5683 13.7726 46.0011 14.018 46.4937Z" fill="#727272"/>
<path d="M16.6605 52.8373C16.6463 53.2046 17.0286 53.4125 17.3511 53.3128C17.5052 53.2644 17.6164 53.1562 17.6906 53.0195C17.702 52.9968 17.7135 52.9711 17.7249 52.9484C17.7876 52.8487 17.7249 52.8772 17.5308 53.0395C17.4424 53.0281 17.4823 53.0281 17.5451 53.0622C17.7477 53.1733 18.0131 53.1107 18.13 52.9085C18.2442 52.712 18.1786 52.4358 17.976 52.3248C17.7648 52.208 17.5251 52.1397 17.2911 52.2365C17.1713 52.2878 17.0714 52.3732 17.003 52.4871C16.983 52.5184 16.963 52.5554 16.9516 52.5924C16.9459 52.6038 16.9402 52.6152 16.9345 52.6266C17.0828 52.4615 17.2369 52.4472 17.3996 52.5839C17.4367 52.6465 17.4738 52.7092 17.5109 52.7718C17.5137 52.7946 17.5166 52.8174 17.5194 52.8402C17.528 52.6152 17.3168 52.4017 17.0914 52.4131C16.8489 52.4216 16.6691 52.5981 16.6605 52.8373Z" fill="#727272"/>
<path d="M32.4781 31.6791C32.5294 31.9353 32.6179 32.1745 32.7292 32.4108C32.8348 32.6301 33.123 32.6586 33.3141 32.5646C33.4226 32.5105 33.511 32.4137 33.5681 32.3083C33.5852 32.277 33.5966 32.2428 33.6137 32.2087C33.705 32.0122 33.6109 32.3083 33.3912 32.2856C33.3198 32.2656 33.2485 32.2457 33.1743 32.2286C33.1258 32.2058 33.2456 32.2827 33.2456 32.2827C33.2913 32.3169 33.3227 32.3368 33.3769 32.3596C33.4882 32.408 33.6023 32.4165 33.7222 32.3994C33.979 32.3567 34.1302 32.1916 34.2272 31.961C34.3157 31.7474 34.1302 31.4911 33.9276 31.4342C33.6822 31.3659 33.491 31.5196 33.3997 31.7332C33.4996 31.5481 33.6252 31.5082 33.7735 31.6136C33.7621 31.6022 33.7507 31.5908 33.7364 31.5823C33.6822 31.5282 33.5795 31.4712 33.5053 31.4513C33.3683 31.4143 33.22 31.437 33.1001 31.5082C33.0003 31.568 32.9289 31.662 32.8804 31.7645C32.869 31.7901 32.8547 31.8186 32.8433 31.8471C32.8119 31.9382 32.8291 31.8528 32.8804 31.83C33.0744 31.8812 33.2713 31.9325 33.4654 31.9837C33.3855 31.8157 33.337 31.6392 33.2999 31.457C33.2571 31.2292 32.9831 31.1011 32.772 31.158C32.5409 31.2178 32.4353 31.4513 32.4781 31.6791Z" fill="#727272"/>
<path d="M33.4712 36.5677C33.5254 36.8382 33.5825 37.1087 33.6367 37.3792C33.728 37.8262 34.3301 37.7436 34.4613 37.3792C34.5041 37.2567 34.5783 37.177 34.6725 37.0916C34.4471 37.0631 34.2245 37.0346 33.9991 37.0062C34.0733 37.177 34.1503 37.3507 34.2245 37.5215C34.3101 37.718 34.6411 37.8034 34.8095 37.6753C34.9122 37.5984 34.9949 37.5301 35.0606 37.4162C35.0834 37.3763 35.1091 37.3279 35.1233 37.2823C35.129 37.2624 35.1376 37.2425 35.149 37.2254C35.2175 37.1001 35.0862 37.0603 34.7524 37.1058C34.721 37.3336 34.9721 37.5329 35.1804 37.5329C35.4372 37.5329 35.577 37.3364 35.6084 37.1058C35.6569 36.7499 35.3231 36.4281 34.9778 36.4281C34.8037 36.4281 34.6468 36.505 34.5298 36.6275C34.4756 36.6844 34.4385 36.747 34.4014 36.8154C34.3786 36.8609 34.2901 37.0033 34.3786 36.9378C34.5726 36.9891 34.7695 37.0403 34.9635 37.0916C34.8894 36.9207 34.8123 36.747 34.7381 36.5762C34.6211 36.3086 34.2473 36.3256 34.0647 36.4908C33.8593 36.6759 33.728 36.898 33.6339 37.1542C33.9078 37.1542 34.1846 37.1542 34.4585 37.1542C34.4043 36.8837 34.3472 36.6132 34.293 36.3427C34.1874 35.8017 33.3599 36.0295 33.4712 36.5677Z" fill="#727272"/>
<path d="M34.2209 43.0999C34.1952 43.3134 34.2209 43.5327 34.278 43.7377C34.3493 43.9854 34.6746 44.1534 34.9057 43.9939C35.057 43.8886 35.1483 43.7747 35.2139 43.6039C35.231 43.5611 35.2453 43.5156 35.2595 43.47C35.2852 43.3789 35.2595 43.5013 35.1854 43.5127C35.1083 43.5127 35.0341 43.5127 34.9571 43.5127C34.8858 43.4843 34.8401 43.4416 34.8287 43.3789C34.8201 43.3504 34.823 43.359 34.8401 43.4045C34.8487 43.4302 34.8572 43.4586 34.8658 43.4843C34.9143 43.6152 34.9828 43.7206 35.0912 43.8089C35.3252 43.9968 35.5905 43.9655 35.8188 43.7889C36.0014 43.6466 35.9672 43.3334 35.8188 43.1853C35.6391 43.0059 35.3965 43.0429 35.2139 43.1853C35.2053 43.1938 35.1939 43.1995 35.1854 43.2081C35.2481 43.1711 35.3109 43.134 35.3737 43.097C35.3623 43.0999 35.3509 43.1027 35.3394 43.1056C35.4165 43.1056 35.4907 43.1056 35.5677 43.1056C35.6191 43.1141 35.6933 43.2707 35.6619 43.1768C35.6391 43.1027 35.6105 43.0258 35.5706 42.9604C35.4507 42.7667 35.2396 42.6557 35.0142 42.6785C34.8144 42.6984 34.6518 42.8237 34.5433 42.9888C34.4977 43.06 34.4663 43.1397 34.4406 43.2195C34.4321 43.2451 34.4149 43.2821 34.4121 43.3077C34.4092 43.3447 34.4035 43.2992 34.4749 43.2508C34.6832 43.3362 34.8943 43.4216 35.1026 43.507C35.0627 43.3675 35.057 43.2422 35.0741 43.097C35.0998 42.8664 34.8572 42.6699 34.6461 42.6699C34.3978 42.6728 34.2494 42.8692 34.2209 43.0999Z" fill="#727272"/>
<path d="M33.9856 48.1284C33.9627 48.4074 33.9856 48.6807 34.0284 48.9569C34.0797 49.2787 34.5391 49.3613 34.7446 49.1449C34.8188 49.068 34.8958 48.9911 34.9757 48.9199C35.047 48.8573 35.1212 48.7946 35.1783 48.7548C34.97 48.6694 34.7588 48.5839 34.5505 48.4985C34.5762 48.5725 34.5762 48.4871 34.5677 48.5668C34.5734 48.5071 34.5334 48.6209 34.562 48.5725C34.4507 48.7747 34.5135 49.0395 34.716 49.1563C34.9129 49.2701 35.1897 49.2075 35.301 49.0025C35.4237 48.7776 35.4636 48.5156 35.378 48.2707C35.2953 48.0372 34.9871 47.8408 34.7503 48.0145C34.5334 48.1739 34.3308 48.3448 34.1454 48.5384C34.3851 48.601 34.6219 48.6637 34.8616 48.7263C34.833 48.5412 34.833 48.3248 34.8473 48.1227C34.8644 47.9006 34.639 47.687 34.4193 47.6956C34.1682 47.7126 34.0055 47.8892 33.9856 48.1284Z" fill="#727272"/>
<path d="M33.7117 53.7053C33.5577 53.9644 33.4407 54.2492 33.375 54.5453C33.3237 54.7702 33.4435 55.0066 33.6747 55.0721C33.9143 55.1375 34.1198 54.9923 34.2025 54.7731C34.2282 54.7019 34.3138 54.5481 34.3595 54.4883C34.1569 54.4883 33.9571 54.4883 33.7546 54.4883C33.7032 54.4257 33.6889 54.3574 33.7089 54.2776C33.6718 54.5054 33.7688 54.7361 34.0085 54.8044C34.2139 54.8614 34.4964 54.7361 34.5364 54.5054C34.5763 54.2691 34.5335 54.0612 34.3623 53.8847C34.2139 53.731 33.9001 53.7053 33.7574 53.8847C33.5919 54.0897 33.4721 54.2976 33.3779 54.5453C33.6518 54.6222 33.9286 54.6962 34.2025 54.7731C34.2567 54.5339 34.3281 54.346 34.4536 54.1381C34.5706 53.9388 34.4993 53.6683 34.2995 53.5544C34.097 53.4348 33.8316 53.506 33.7117 53.7053Z" fill="#727272"/>
<path d="M36.8447 55.4114C36.6678 55.642 36.585 55.9267 36.5707 56.2143C36.5622 56.3823 36.6849 56.5446 36.8332 56.6044C37.0016 56.6728 37.1642 56.6329 37.3012 56.5161C37.5124 56.3368 37.7235 56.1545 37.9347 55.9751C37.7092 55.9467 37.4867 55.9182 37.2613 55.8897C37.2441 55.8641 37.2527 55.8271 37.2556 55.7986C37.2584 55.7787 37.3041 55.7103 37.2584 55.7815C37.1357 55.978 37.2156 56.2513 37.4125 56.3652C37.6179 56.4848 37.8747 56.4079 37.9974 56.2115C38.143 55.9808 38.1401 55.6876 38.0003 55.4541C37.8491 55.2035 37.538 55.1893 37.3269 55.3687C37.1157 55.548 36.9046 55.7303 36.6934 55.9097C36.936 56.0093 37.1814 56.1118 37.4239 56.2115C37.4296 56.0833 37.4011 56.2684 37.4296 56.146C37.441 56.1033 37.4524 56.0577 37.4667 56.015C37.4439 56.0748 37.5009 55.9552 37.5009 55.9524C37.5238 55.9125 37.5495 55.8755 37.578 55.8413C37.7178 55.6562 37.6065 55.363 37.4239 55.2576C37.2099 55.1295 36.9873 55.2263 36.8447 55.4114Z" fill="#727272"/>
<path d="M38.4252 49.8193C38.3653 50.1439 38.331 50.4713 38.3282 50.8045C38.3225 51.223 38.9188 51.3939 39.1271 51.0209C39.2555 50.7874 39.4068 50.5852 39.5951 50.3973C39.421 50.4201 39.2498 50.4428 39.0758 50.4628C39.0672 50.4571 39.0558 50.4485 39.0472 50.4428C39.0101 50.3802 38.973 50.3176 38.9359 50.2549C38.9274 50.2293 38.9559 50.1496 38.9274 50.2407C38.9074 50.2976 38.896 50.3887 38.8931 50.4428C38.8874 50.5795 38.9274 50.7133 39.0073 50.8244C39.0986 50.9468 39.2498 51.0294 39.4068 51.0294C39.4924 51.0294 39.5922 51.0038 39.6664 50.9639C39.6807 50.9554 39.6921 50.9497 39.7064 50.9411C39.7748 50.8984 39.7549 50.8956 39.6464 50.9326C39.5751 50.9127 39.5038 50.8927 39.4296 50.8756C39.3154 50.8187 39.3069 50.7532 39.3183 50.6706C39.2869 50.8984 39.3754 51.1291 39.6179 51.1974C39.8176 51.2515 40.1115 51.1291 40.1458 50.8984C40.18 50.6536 40.1686 50.4058 39.9803 50.2208C39.8861 50.1296 39.7435 50.0755 39.6122 50.0784C39.5266 50.0812 39.4267 50.1097 39.3525 50.1496C39.3326 50.161 39.2384 50.2008 39.2926 50.1894C39.3697 50.1894 39.4438 50.1894 39.5209 50.1894C39.5095 50.1866 39.4952 50.1809 39.4838 50.178C39.5466 50.2151 39.6093 50.2521 39.6721 50.2891C39.7007 50.5254 39.7263 50.5852 39.752 50.4685C39.7634 50.44 39.7691 50.4115 39.7748 50.3802C39.7891 50.3147 39.7948 50.2464 39.7891 50.178C39.7777 49.9901 39.6807 49.8107 39.5066 49.7282C39.3354 49.6427 39.13 49.6541 38.9873 49.7937C38.7505 50.03 38.5479 50.2976 38.3852 50.5881C38.6506 50.6592 38.916 50.7304 39.1842 50.8045C39.187 50.551 39.207 50.2976 39.2527 50.0471C39.2926 49.8193 39.1899 49.5858 38.9531 49.5203C38.7419 49.4634 38.4651 49.5915 38.4252 49.8193Z" fill="#727272"/>
<path d="M38.9999 43.9394C38.8772 44.2327 38.8743 44.5658 38.9685 44.8676C39.0997 45.2834 39.6533 45.2634 39.7931 44.8676C39.8644 44.6626 39.9929 44.5003 40.1555 44.358C39.913 44.2583 39.6676 44.1558 39.425 44.0562C39.4336 44.2014 39.445 44.3466 39.4536 44.489C39.4707 44.7395 39.6362 44.8876 39.8816 44.9161C40.0185 44.9331 40.1441 44.8876 40.2582 44.8136C40.3067 44.7822 40.3495 44.7452 40.3866 44.7025C40.4009 44.6826 40.418 44.6655 40.4323 44.6484C40.4836 44.5943 40.4408 44.6057 40.301 44.6826C40.2297 44.6626 40.1584 44.6427 40.0842 44.6256C40.0613 44.6 40.0357 44.5744 40.0128 44.5487C39.9929 44.4776 39.9729 44.4064 39.9558 44.3323C39.9558 44.3437 39.9558 44.3551 39.9586 44.3665C39.9786 44.2953 39.9986 44.2241 40.0157 44.1501C40.01 44.1587 40.0043 44.17 39.9986 44.1786C39.7075 44.6484 40.4494 45.0784 40.7376 44.6085C40.9088 44.3323 40.7661 43.9736 40.4665 43.8654C40.3096 43.8084 40.1498 43.8198 40.0043 43.8995C39.9443 43.9309 39.893 43.9764 39.8445 44.0248C39.8331 44.0362 39.8245 44.0505 39.8131 44.0618C39.756 44.1188 39.7788 44.1188 39.8816 44.0618C40.0242 44.2042 40.1669 44.3466 40.3096 44.489C40.301 44.3437 40.2896 44.1985 40.281 44.0562C40.2554 43.6775 39.8359 43.5038 39.5506 43.7543C39.2766 43.9964 39.0883 44.2982 38.9685 44.6399C39.2424 44.6399 39.5192 44.6399 39.7931 44.6399C39.7389 44.4662 39.756 44.3323 39.8245 44.1672C39.913 43.9536 39.7275 43.6974 39.5249 43.6404C39.2795 43.5721 39.0883 43.7259 38.9999 43.9394Z" fill="#727272"/>
<path d="M38.6441 36.4535C38.6669 36.6926 38.6926 36.9347 38.7154 37.1739C38.7354 37.3846 38.861 37.5668 39.0864 37.5924C39.2918 37.618 39.503 37.4956 39.5572 37.2877C39.6029 37.1055 39.6656 36.9404 39.7569 36.7781C39.5116 36.7781 39.2633 36.7781 39.0179 36.7781C39.0607 36.8578 39.1035 36.9375 39.1435 37.0144C39.3004 37.3077 39.717 37.2735 39.8825 37.0144C39.8968 36.9916 39.9167 36.9717 39.9167 36.9631C39.9624 36.9233 39.931 36.9261 39.8283 36.9717C39.7826 36.9973 39.737 37.003 39.6913 36.9945C39.64 36.9432 39.5886 36.892 39.5372 36.8407C39.5344 36.8293 39.5315 36.8179 39.5287 36.8065C39.6942 37.3276 40.5217 37.1055 40.3533 36.5788C40.2677 36.3111 40.0337 36.1431 39.7484 36.1517C39.4716 36.1602 39.2776 36.3652 39.1406 36.5816C39.386 36.5816 39.6342 36.5816 39.8796 36.5816C39.8368 36.5019 39.794 36.4221 39.7541 36.3453C39.6057 36.0662 39.1663 36.0691 39.0151 36.3453C38.8924 36.5702 38.7953 36.8094 38.7297 37.06C39.0093 37.097 39.289 37.1368 39.5715 37.1739C39.5486 36.9347 39.523 36.6926 39.5001 36.4535C39.4773 36.2228 39.3204 36.0264 39.0721 36.0264C38.8581 36.0264 38.6213 36.2228 38.6441 36.4535Z" fill="#727272"/>
<path d="M36.5238 31.679C36.6323 31.9524 36.7664 32.1801 36.9547 32.4079C37.1716 32.6699 37.5796 32.499 37.6709 32.22C37.7365 32.015 37.7651 31.7929 37.7451 31.5793C37.4797 31.6505 37.2144 31.7217 36.9461 31.7957C37.0289 31.9552 37.1459 32.1004 37.2857 32.2143C37.4655 32.3595 37.7166 32.388 37.8906 32.2143C38.0418 32.0634 38.0704 31.7559 37.8906 31.6107C37.8392 31.5708 37.7907 31.5252 37.7508 31.4768C37.708 31.4227 37.7765 31.5196 37.7394 31.4598C37.7194 31.4284 37.7023 31.3971 37.6852 31.3658C37.5967 31.195 37.377 31.1181 37.2001 31.1665C37.0317 31.212 36.8691 31.3943 36.8862 31.5793C36.9033 31.7587 36.8976 31.8299 36.8434 31.9922C37.0831 31.9296 37.3199 31.8669 37.5596 31.8043C37.5225 31.7616 37.4854 31.7075 37.4426 31.6334C37.4227 31.5993 37.4027 31.5623 37.3827 31.5281C37.377 31.5196 37.3313 31.4114 37.3456 31.4541C37.26 31.2405 37.0603 31.0896 36.8177 31.1551C36.618 31.2092 36.4382 31.4626 36.5238 31.679Z" fill="#727272"/>
<path d="M40.8483 31.3482C40.8825 31.5275 40.951 31.7012 41.0452 31.8607C41.1422 32.023 41.3448 32.1084 41.5274 32.0571C41.7214 32.003 41.8241 31.835 41.8413 31.6443C41.8612 31.445 41.8812 31.2428 41.9012 31.0435C41.6872 31.1659 41.4732 31.2884 41.2563 31.4136C41.3876 31.5105 41.5188 31.6101 41.6501 31.7069C41.8355 31.8436 42.1294 31.7382 42.235 31.5532C42.3634 31.3368 42.2664 31.1061 42.0809 30.9695C41.9497 30.8726 41.8184 30.773 41.6872 30.6762C41.5673 30.5879 41.3761 30.605 41.2563 30.6762C41.1165 30.7587 41.0594 30.8897 41.0452 31.0463C41.0252 31.2456 41.0052 31.4478 40.9852 31.6471C41.2506 31.5759 41.516 31.5048 41.7842 31.4307C41.7157 31.3168 41.6986 31.2627 41.6729 31.1232C41.6301 30.8954 41.3562 30.7673 41.145 30.8242C40.911 30.8869 40.8083 31.1204 40.8483 31.3482Z" fill="#727272"/>
<path d="M42.747 36.474C42.7869 36.7103 42.844 36.9381 42.9211 37.1659C43.0095 37.4364 43.2949 37.5503 43.5488 37.4222C43.7057 37.3424 43.8056 37.1944 43.8456 37.0264C43.8655 36.9495 43.8684 36.8669 43.8741 36.7844C43.8741 36.7559 43.877 36.7274 43.8798 36.6989C43.8741 36.8185 43.7942 36.8954 43.6373 36.9353C43.5659 36.9153 43.4946 36.8954 43.4204 36.8783C43.7571 37.0435 44.0196 37.1545 44.4048 37.0691C44.9413 36.9495 44.7158 36.1238 44.1766 36.2462C44.0424 36.2775 43.9654 36.1978 43.8513 36.1408C43.6515 36.044 43.4233 36.0583 43.2492 36.1949C43.1179 36.2975 43.058 36.4398 43.0352 36.6021C43.0266 36.6648 43.0238 36.7246 43.0181 36.7872C43.0124 36.8413 43.0152 36.8441 43.0209 36.8014C42.9924 36.8982 43.0238 36.8584 43.1179 36.6875C43.3262 36.773 43.5374 36.8584 43.7457 36.9438C43.6715 36.716 43.6144 36.4882 43.5716 36.2519C43.5317 36.0241 43.2521 35.896 43.0438 35.9529C42.8041 36.0127 42.7071 36.2462 42.747 36.474Z" fill="#727272"/>
<path d="M43.7437 42.6525C43.7152 42.8689 43.6838 43.0853 43.6553 43.3017C43.6296 43.4925 43.6724 43.6804 43.8521 43.7829C44.0005 43.8712 44.2573 43.8626 44.3715 43.7174C44.4342 43.6348 44.497 43.5665 44.5969 43.5323C44.4171 43.3956 44.2345 43.259 44.0547 43.1194C44.0604 43.2903 44.0633 43.4611 44.069 43.632C44.0776 43.9167 44.3344 44.1103 44.6112 44.0448C44.7481 44.0135 44.8623 43.9452 44.9707 43.8598L45.0763 43.7772C45.0677 43.7658 44.9307 43.7743 44.8993 43.7402C44.8623 43.6775 44.8252 43.6149 44.7881 43.5522C44.7938 43.5665 44.7966 43.5807 44.8023 43.595C44.9821 44.1103 45.8096 43.8882 45.627 43.3672C45.5271 43.0853 45.2988 42.9258 44.9964 42.9344C44.8737 42.9372 44.7453 42.9771 44.6397 43.0397C44.5541 43.091 44.4742 43.1963 44.3772 43.2191C44.5569 43.3558 44.7396 43.4925 44.9193 43.632C44.9136 43.4611 44.9108 43.2903 44.9051 43.1194C44.8993 42.8575 44.634 42.6155 44.3629 42.7066C44.1261 42.7892 43.9149 42.9144 43.7608 43.1138C44.0005 43.2533 44.2374 43.3899 44.477 43.5295C44.5056 43.3131 44.537 43.0967 44.5655 42.8803C44.5969 42.6525 44.5113 42.4218 44.2659 42.3535C44.0719 42.2994 43.7751 42.4218 43.7437 42.6525Z" fill="#727272"/>
<path d="M42.5138 49.7253C42.4539 49.9674 42.394 50.2094 42.3369 50.4514C42.2827 50.6735 42.4054 50.9184 42.6365 50.9782C42.842 51.0323 43.0389 50.9924 43.2072 50.8586C43.3413 50.7504 43.3898 50.5824 43.5125 50.477C43.4498 50.5141 43.387 50.5511 43.3242 50.5881C43.3442 50.5795 43.3642 50.571 43.387 50.5625C43.31 50.5625 43.2358 50.5625 43.1587 50.5625C43.1787 50.5653 43.1987 50.571 43.2215 50.5739C43.1359 50.5084 43.0503 50.4429 42.9647 50.3774C42.959 50.3432 42.9618 50.3518 42.9704 50.4087C42.9904 50.4571 43.0103 50.5055 43.0332 50.5539C43.0902 50.6479 43.1787 50.7134 43.2757 50.7561C43.3784 50.8016 43.4926 50.8073 43.6039 50.7846C43.6409 50.7817 43.678 50.7703 43.7123 50.7561C43.8806 50.702 43.8464 50.6849 43.6096 50.7077C43.5582 50.6564 43.5068 50.6052 43.4555 50.5539C43.4612 50.5625 43.4697 50.5739 43.4754 50.5824C43.4555 50.5112 43.4355 50.44 43.4184 50.366C43.4184 50.3774 43.4184 50.3916 43.4155 50.403C43.3898 50.9526 44.2459 50.9526 44.2716 50.403C44.283 50.1695 44.1232 49.9731 43.9035 49.9047C43.8007 49.8734 43.6866 49.8706 43.581 49.8962C43.5439 49.9047 43.3984 49.9332 43.4412 49.9389C43.5125 49.9588 43.5839 49.9788 43.6581 49.9958C43.6438 49.9873 43.6324 49.9759 43.6181 49.9674C43.6695 50.0186 43.7208 50.0699 43.7722 50.1211C43.7522 50.0813 43.7066 49.9304 43.6352 49.8563C43.5211 49.7424 43.3128 49.6912 43.1587 49.7339C43.0332 49.7681 42.9247 49.8421 42.8391 49.936C42.7935 49.9873 42.7535 50.0442 42.7193 50.104C42.7079 50.124 42.6993 50.1439 42.6879 50.161C42.608 50.2692 42.6679 50.2663 42.8677 50.1496C42.9675 50.3261 43.0674 50.4998 43.1673 50.6764C43.2272 50.4343 43.2871 50.1923 43.3442 49.9503C43.4697 49.4178 42.6451 49.19 42.5138 49.7253Z" fill="#727272"/>
<path d="M41.6066 54.8621C41.6693 54.9105 41.7321 54.959 41.7949 55.0074C41.9775 55.1497 42.2743 55.0358 42.3798 54.8536C42.5082 54.6344 42.4112 54.4094 42.2257 54.2699C42.163 54.2215 42.1002 54.1731 42.0374 54.1247C41.8548 53.9823 41.558 54.0962 41.4525 54.2784C41.3241 54.4977 41.4239 54.7198 41.6066 54.8621Z" fill="#727272"/>
</g>
<g clip-path="url(#clip1_42091_2084)">
<path d="M22.4628 28.2556C22.8186 25.3301 20.7612 23.1458 18.5689 21.4613C17.292 20.4786 16.0438 19.6588 15.2117 18.2522C14.787 17.5307 14.3795 16.7165 14.1414 15.9163C13.6765 14.3581 14.48 11.91 16.4685 13.7068C17.6134 14.7428 17.8774 16.0792 18.7526 17.2303C19.2461 17.8816 20.0037 18.2298 20.7928 17.8143C23.1658 16.5677 21.3294 12.2441 20.7985 10.5258C20.1558 8.44543 19.8172 6.44363 20.8989 4.44184C21.2548 3.78488 21.6536 3.10825 22.1099 2.51586C22.4054 2.13403 22.7813 1.72132 23.2031 1.45741C24.0754 0.907126 24.6006 0.907126 25.5647 1.19911C26.592 1.51075 26.6006 1.5641 26.81 2.5299C26.9076 2.9763 26.9478 3.46762 26.9707 3.92806C27.0195 4.90228 26.9392 5.88493 26.7354 6.84231C26.3538 8.6588 25.2548 10.2647 25.0138 12.1093C24.8358 13.4653 24.9592 17.7749 27.2433 17.3707C29.9205 16.8962 29.7283 12.6905 32.3969 12.1289C34.6179 11.6601 35.7025 14.0493 34.7613 15.6889C34.2506 16.5817 33.4012 17.2724 32.5834 17.8816C31.1257 18.9682 29.3438 19.5353 27.9119 20.633C25.3208 22.6264 26.1816 25.7596 27.2462 28.3286C27.4528 28.8255 28.2849 28.6065 28.0755 28.104C27.3581 26.3717 26.4571 24.252 27.427 22.4327C28.3251 20.7482 30.6953 20.1586 32.2247 19.1647C34.2907 17.8227 37.2549 15.2959 35.5045 12.6371C34.0411 10.4107 31.2061 11.1547 29.8689 13.0189C29.4643 13.5833 29.1515 14.2037 28.7928 14.7961C28.6293 15.0657 28.4657 15.338 28.2735 15.5907C28.1357 15.7535 27.998 15.9135 27.8603 16.0764C26.7727 16.3122 26.2103 16.0286 26.173 15.2201C25.0826 12.9516 26.4026 10.6269 27.1429 8.53527C27.6938 6.97988 27.9291 5.32342 27.8115 3.681C27.7311 2.54393 27.6106 1.00539 26.5174 0.325961C25.5561 -0.272049 24.0783 0.0704731 23.1343 0.536528C21.7282 1.2328 20.8674 2.70958 20.1558 4.02352C18.3279 7.39821 20.173 10.3714 20.853 13.7714C20.942 14.2234 21.1687 15.2145 21.0166 15.717C20.5517 16.1325 20.0869 16.5452 19.6192 16.9608C19.3523 16.6267 19.1514 16.2617 19.0108 15.8602C18.7411 15.2734 18.457 14.7259 18.0639 14.2037C17.4441 13.3783 16.2734 12.0223 15.0768 12.0896C13.9147 12.157 13.2317 13.3587 13.1083 14.361C12.9247 15.8433 13.7368 17.424 14.4713 18.6818C16.5087 22.166 22.1873 23.449 21.602 28.2612C21.5388 28.7918 22.3997 28.789 22.4628 28.2556Z" fill="#46A358"/>
<path d="M29.901 14.2569C30.5208 11.1826 29.35 8.37227 29.1061 5.3373C28.9598 3.52361 29.7489 0.623403 32.2568 1.44883C34.1248 2.06368 34.8336 4.24235 34.7073 5.98584C34.6155 7.26047 33.99 11.0001 36.4979 10.652C38.65 10.3544 39.7605 6.84496 40.8049 5.35695C41.7002 4.08232 43.6773 2.22091 45.4162 2.7403C48.1709 3.56292 46.4061 6.79723 45.1378 8.06905C43.0001 10.2112 40.7217 12.1063 38.8365 14.4927C37.7432 15.8769 36.7963 18.151 39.221 18.7715C40.1536 19.0101 41.0517 18.6929 41.8925 18.3166C42.5697 18.0134 43.2153 17.6513 43.9355 17.4519C45.2497 17.0869 46.7734 17.3733 45.904 18.9708C43.8695 22.7133 39.2124 19.9535 36.2081 21.5229C33.66 22.8565 33.066 25.8044 33.307 28.3902C33.3558 28.9264 34.2195 28.932 34.1679 28.3902C33.9986 26.5877 34.1449 24.6393 35.419 23.2102C37.066 21.3628 39.264 22.0367 41.4448 21.9945C43.6715 21.9524 46.5381 20.8968 47.0001 18.4626C47.5051 15.7955 44.4004 16.312 42.8078 16.955C42.1048 17.2385 41.4477 17.6793 40.7131 17.8871C40.1306 18.0527 39.2095 18.1426 38.7504 17.6063C38.3056 17.0841 38.6643 16.2054 38.9398 15.7618C39.947 14.1334 41.4907 12.6482 42.8624 11.309C44.7533 9.4616 47.9786 7.50192 47.7003 4.48941C47.4879 2.18441 45.3129 1.33933 43.3071 2.20406C42.1019 2.72346 41.1062 3.54888 40.32 4.57925C39.2927 5.92408 38.7447 7.77145 37.5194 8.95624C37.0775 9.38299 36.6442 10.2898 35.6571 9.39983C35.2181 9.00397 35.3501 7.94833 35.396 7.40647C35.4563 6.69616 35.6112 6.00269 35.5883 5.28676C35.551 4.0767 35.1406 2.8498 34.34 1.91207C32.6471 -0.0644486 29.7403 0.0225857 28.6155 2.50166C27.944 3.98405 28.2396 5.67982 28.5208 7.21836C28.934 9.48968 29.5394 11.7189 29.0717 14.0323C28.9655 14.5629 29.7948 14.7903 29.901 14.2569Z" fill="#46A358"/>
<path d="M29.7081 19.5826C29.3035 22.4772 28.6406 25.3128 27.7167 28.0923C27.5445 28.6089 28.3767 28.8307 28.546 28.3169C29.4699 25.5374 30.1328 22.7018 30.5374 19.8072C30.612 19.2738 29.7827 19.0464 29.7081 19.5826Z" fill="#46A358"/>
<path d="M19.413 27.7723C19.3011 25.5431 17.72 24.0382 15.9007 22.8927C14.7214 22.1487 13.4301 21.5283 12.4172 20.5597C11.9811 20.1441 11.169 19.3384 11.126 18.6926C10.9796 16.5392 13.6683 18.2153 14.2651 18.7123C14.6841 19.0632 15.2953 18.468 14.8735 18.1171C13.9352 17.3338 12.2508 16.3146 10.9624 16.9042C9.92365 17.3787 10.0958 18.5551 10.4947 19.4029C12.1733 23.005 18.3312 23.4178 18.5521 27.7723C18.578 28.3113 19.4417 28.3141 19.413 27.7723Z" fill="#46A358"/>
<path d="M38.7172 28.6067C39.7904 27.0232 41.205 25.7289 42.9382 24.8586C44.5164 24.0669 46.4733 23.9293 47.8708 22.8091C49.4748 21.5232 49.558 18.3703 46.9038 18.4517C46.3499 18.4686 46.3499 19.3109 46.9038 19.294C47.9511 19.4344 48.3758 20.0015 48.1835 20.9926C47.9683 21.5625 47.6039 22.0117 47.0903 22.3374C46.4619 22.7726 45.6986 22.9719 44.9755 23.1965C44.0544 23.4829 43.1562 23.7833 42.304 24.2325C40.5307 25.1702 39.0816 26.5459 37.9711 28.1827C37.6641 28.6348 38.4101 29.0559 38.7172 28.6067Z" fill="#46A358"/>
<path d="M41.0554 21.1972C37.4083 21.871 36.0625 25.4225 35.1988 28.5305C35.0525 29.0555 35.8846 29.2773 36.0281 28.7551C36.8143 25.9279 37.9478 22.6262 41.285 22.0114C41.8273 21.9075 41.5977 21.0961 41.0554 21.1972Z" fill="#46A358"/>
<path d="M21.8234 8.37812C21.3959 6.69639 21.9296 4.85463 23.3127 3.726C23.591 3.48735 23.9066 3.30486 24.2539 3.17852C25.2094 3.37786 25.6542 3.8776 25.5882 4.67776C25.6054 5.14381 25.5135 5.60425 25.4016 6.05346C25.175 6.9603 24.7761 7.82223 24.4805 8.70942C23.7201 10.9948 22.6269 14.7316 24.6814 16.6773C24.8794 16.8654 25.1864 16.5678 24.9856 16.3797C23.1835 14.6755 24.1075 11.3991 24.7244 9.35796C25.2582 7.5892 26.7072 5.23927 25.7288 3.38067C24.9655 1.93196 23.2151 3.10833 22.4719 3.95622C21.3729 5.21119 21.0027 6.89854 21.4073 8.49043C21.4762 8.75434 21.8894 8.64203 21.8234 8.37812Z" fill="#46A358"/>
<path d="M30.9181 15.1972C31.1649 14.6609 31.6641 13.9029 32.3327 13.813C33.3514 13.6755 33.8765 14.9276 33.3313 15.7559C32.8177 16.5364 31.8392 17.081 30.9956 17.4151C29.5924 17.9682 28.6512 18.7319 27.6325 19.824C27.446 20.0234 27.7502 20.3238 27.9367 20.1216C28.5536 19.4562 29.1849 18.7656 29.9884 18.3051C30.6283 17.9374 31.3715 17.7942 32.0142 17.4348C32.7976 16.994 34.0659 16.0423 34.1577 15.0821C34.2323 14.3072 33.3973 13.4088 32.6168 13.361C31.6756 13.3021 30.8894 14.2454 30.5479 14.9866C30.4331 15.2281 30.8062 15.4442 30.9181 15.1972Z" fill="#46A358"/>
<path d="M14.8271 15.686C14.9218 14.9476 15.2059 14.6753 15.6765 14.8746C15.8429 14.8774 15.9806 14.9364 16.0954 15.0515C16.3221 15.1975 16.4713 15.4136 16.6062 15.6411C16.8472 16.0482 16.9591 16.5226 17.137 16.955C17.3637 17.5109 17.6621 17.9629 18.1758 18.2942C18.4082 18.4458 18.6234 18.0808 18.3939 17.9292C17.1313 17.1094 17.4842 14.9813 15.906 14.4647C14.9591 14.1559 14.0064 14.9588 14.457 15.8965C14.5746 16.1436 14.9448 15.9302 14.8271 15.686Z" fill="#46A358"/>
<path d="M30.2482 4.79045C30.0243 3.57759 31.3299 2.61179 32.3285 3.49617C32.8795 3.98469 33.0918 4.8831 33.0947 5.58499C33.1004 6.53676 32.6556 7.38745 32.845 8.34202C32.8967 8.60874 33.3127 8.49643 33.2611 8.22972C33.0229 7.03089 33.7059 5.8826 33.3988 4.63885C33.2152 3.89484 32.8422 3.06661 32.0559 2.78586C30.6384 2.2833 29.5968 3.62532 29.8321 4.89995C29.8837 5.16667 30.2969 5.05437 30.2482 4.79045Z" fill="#46A358"/>
<path d="M30.0326 7.56664C30.7327 9.00692 31.077 10.2703 31.0254 11.8678C31.0168 12.1402 31.4472 12.1374 31.4558 11.8678C31.5103 10.1889 31.1373 8.86093 30.4056 7.35608C30.2851 7.11182 29.9149 7.32519 30.0326 7.56664Z" fill="#46A358"/>
<path d="M41.1954 6.36231C41.6114 5.43301 42.3977 4.84623 43.3073 4.40544C43.5684 4.27068 43.8381 4.16118 44.1193 4.07415C45.3331 4.47844 45.6402 5.03714 45.0405 5.75588C44.7535 6.19666 44.3374 6.59253 43.9787 6.97997C42.6129 8.45394 41.138 9.81841 39.5799 11.093C39.3675 11.2671 39.6717 11.5647 39.884 11.3906C41.2929 10.2395 42.633 9.01545 43.8841 7.70151C44.6359 6.91259 46.0792 5.74184 45.7636 4.49528C45.1351 2.02463 41.3503 4.96976 40.8223 6.15174C40.7133 6.396 41.0863 6.60937 41.1954 6.36231Z" fill="#46A358"/>
<path d="M38.7649 12.6227C37.3904 13.611 36.5554 15.0513 36.3976 16.7106C36.3718 16.9801 36.8022 16.9773 36.828 16.7106C36.9715 15.2113 37.7405 13.8777 38.983 12.9849C39.2039 12.8277 38.9887 12.4599 38.7649 12.6227Z" fill="#46A358"/>
<path d="M41.4877 19.6472C41.7689 19.4816 42.0501 19.3075 42.3457 19.1643C42.5695 19.0436 42.8048 18.9509 43.0515 18.8864C43.5135 18.6983 43.6685 19.0492 43.5135 19.9392C43.2094 20.526 41.5623 20.5484 41.0515 20.5175C39.7746 20.4446 38.5723 20.102 37.3126 20.481C37.0486 20.5597 37.1605 20.9668 37.4274 20.8881C38.9396 20.4305 40.4116 21.0959 41.9382 20.9303C42.7675 20.8376 43.9411 20.4642 44.3543 19.6781C44.5838 19.2401 44.5293 18.6618 44.0272 18.4231C43.2036 18.0329 41.9181 18.8976 41.2696 19.2822C41.0343 19.4254 41.2495 19.7904 41.4877 19.6472Z" fill="#46A358"/>
<path d="M35.0893 21.2143C32.8511 22.9915 32.0362 25.6868 31.8095 28.4045C31.7865 28.674 32.2169 28.674 32.2399 28.4045C32.458 25.7907 33.2413 23.2189 35.3934 21.5119C35.6087 21.3407 35.3016 21.0459 35.0893 21.2143Z" fill="#46A358"/>
<path d="M25.4559 21.9305C24.7902 23.0591 24.8102 24.2888 24.9566 25.5522C25.08 26.6135 25.2206 27.6551 25.9695 28.4805C26.1531 28.6827 26.4573 28.3851 26.2737 28.1829C25.5391 27.3743 25.4473 26.2513 25.3497 25.2181C25.2464 24.1428 25.2607 23.1012 25.8289 22.141C25.9666 21.908 25.5965 21.6975 25.4559 21.9305Z" fill="#46A358"/>
<path d="M13.5821 19.1563C12.3367 19.1731 12.8303 20.4562 13.496 20.9166C14.3281 21.4922 15.275 21.8768 16.1588 22.3625C17.2005 22.9352 17.6194 23.901 18.42 24.7068C18.6122 24.9005 18.9164 24.6029 18.7241 24.4092C17.9293 23.6091 17.5448 22.6517 16.5204 22.0789C16.0039 21.7898 15.4616 21.5455 14.9422 21.2675C14.6725 21.1244 14.4027 20.9812 14.1445 20.8211C14.0412 20.7594 13.935 20.6948 13.8317 20.633C13.3181 20.4421 13.2377 20.0912 13.5849 19.5802C13.8575 19.5746 13.8575 19.1535 13.5821 19.1563Z" fill="#46A358"/>
<path d="M45.9697 21.0966C45.9841 21.6581 45.7201 21.9641 45.172 22.0174C44.908 22.1213 44.6469 22.2224 44.3829 22.3263C43.9898 22.4807 43.5938 22.6351 43.2007 22.7895C42.2825 23.1489 41.3614 23.5111 40.4432 23.8704C40.1878 23.9687 40.2997 24.3786 40.5579 24.2775C41.6082 23.8648 42.6584 23.4549 43.7086 23.0422C44.4862 22.7362 45.4791 22.5172 46.1706 22.0399C46.7703 21.6244 46.7875 20.7625 45.9669 20.6754C45.6943 20.6446 45.6971 21.0685 45.9697 21.0966Z" fill="#46A358"/>
<path d="M39.4572 24.454C38.3037 25.5209 37.3941 26.773 36.7513 28.1937C36.6394 28.4379 37.0095 28.6541 37.1243 28.4071C37.7527 27.0201 38.6337 25.796 39.7642 24.7544C39.9622 24.5663 39.6581 24.2687 39.4572 24.454Z" fill="#46A358"/>
<path d="M19.4412 26.2958C19.7712 26.7731 19.9836 27.2869 20.084 27.854C20.1299 28.1207 20.546 28.0084 20.5001 27.7417C20.3939 27.1437 20.1615 26.585 19.8143 26.0825C19.6593 25.8607 19.2863 26.0712 19.4412 26.2958Z" fill="#46A358"/>
</g>
<defs>
<clipPath id="clip0_42091_2084">
<rect width="34.9999" height="30.3158" fill="white" transform="translate(12.0898 28.4209)"/>
</clipPath>
<clipPath id="clip1_42091_2084">
<rect width="38.8181" height="29.0526" fill="white" transform="translate(10.1816)"/>
</clipPath>
</defs>
</svg>
