<svg width="132" height="30" viewBox="0 0 132 30" fill="none" xmlns="http://www.w3.org/2000/svg">
<g clip-path="url(#clip0_42088_1672)">
<path d="M15.092 0C6.75618 0 0 6.71499 0 15C0 22.7581 5.92722 29.1407 13.5266 29.9187C13.0676 26.1634 13.2384 23.0905 13.8219 20.5658C13.4946 18.9993 12.751 16.6796 11.0646 15.0318C11.0646 15.0318 12.1746 16.6867 12.7759 18.9109C12.7759 18.9144 12.7795 18.918 12.7795 18.9215C12.8435 19.1584 12.9004 19.3989 12.9502 19.6464C12.9609 19.703 12.9716 19.7595 12.9823 19.8197C13.0285 20.0743 13.0712 20.3289 13.0997 20.5905C4.57172 19.5509 2.7537 11.9448 2.95294 9.07709C12.0252 9.57567 13.8824 15.5941 14.1528 19.3281C17.1235 9.657 26.5622 9.0983 27.3414 9.07709C27.6793 16.5099 22.1328 22.3055 15.5011 22.8112C15.5438 22.6096 15.5936 22.4081 15.6435 22.21C15.6577 22.1499 15.6755 22.0934 15.6933 22.0332C15.7324 21.8918 15.7715 21.7504 15.8178 21.6089C15.8356 21.5488 15.8569 21.4851 15.8747 21.425C15.9245 21.2694 15.9779 21.1174 16.0313 20.9618C16.0455 20.9264 16.0562 20.8911 16.0704 20.8557C16.138 20.6719 16.2091 20.495 16.2803 20.3182C16.2874 20.3041 16.291 20.2864 16.2981 20.2723C16.2981 20.2723 16.2981 20.2723 16.3016 20.2723C18.0022 16.1846 21.1402 13.5078 21.1402 13.5078C14.9817 17.0438 13.9428 26.2376 13.7792 29.9328C14.2132 29.9717 14.6473 30 15.092 30C23.4278 30 30.184 23.285 30.184 15C30.184 6.71499 23.4278 0 15.092 0Z" fill="#46A358"/>
<path d="M41.1005 9.39817C43.0964 9.39817 44.7259 10.2504 45.7825 11.8062L43.8044 13.4788C43.0964 12.4958 42.239 11.9866 41.0507 11.9866C39.222 11.9866 38.0835 13.1818 38.0835 15.0028C38.0835 16.8557 39.286 18.1004 41.2179 18.1004C42.2568 18.1004 43.0822 17.7398 43.6087 17.1351V16.6259H41.0685V14.2002H46.4443V17.6089C45.932 18.5106 45.2062 19.232 44.2669 19.7872C43.3277 20.3282 42.271 20.6075 41.1005 20.6075C37.8345 20.657 35.1341 18.1323 35.1804 15.0028C35.1306 11.8911 37.8345 9.34867 41.1005 9.39817Z" fill="#46A358"/>
<path d="M54.5234 20.4061L52.0685 17.0468H50.898V20.4061H48.0625V9.59277H52.3318C54.7547 9.59277 56.5371 11.0673 56.5371 13.3127C56.5371 14.6388 55.8931 15.7385 54.8223 16.3926L57.6898 20.4061H54.5234ZM50.8945 14.5892H52.3461C53.1359 14.5892 53.6482 14.0801 53.6482 13.3127C53.6482 12.5454 53.1359 12.0503 52.3461 12.0503H50.8945V14.5892Z" fill="#46A358"/>
<path d="M58.8145 9.59277H66.3641V12.1317H61.65V13.6239H65.0121V15.9825H61.65V17.8672H66.5633V20.4061H58.8145V9.59277Z" fill="#46A358"/>
<path d="M68.3281 9.59277H75.8776V12.1317H71.1636V13.6239H74.5257V15.9825H71.1636V17.8672H76.0769V20.4061H68.3281V9.59277Z" fill="#46A358"/>
<path d="M87.4889 9.59353V20.6049H86.5816L80.6793 14.9189V20.4068H77.8438V9.39551H78.751L84.6533 15.0002V9.59353H87.4889Z" fill="#46A358"/>
<path d="M90.8743 16.736C91.5183 17.5882 92.1942 18.1292 93.2971 18.1292C94.0407 18.1292 94.4178 17.8676 94.4178 17.3407C94.4178 16.8669 94.1688 16.7183 93.3114 16.34L92.1907 15.8485C90.394 15.0599 89.437 14.0451 89.437 12.5882C89.437 10.6717 91.0202 9.3916 93.2438 9.3916C95.0404 9.3916 96.3105 10.2438 96.9687 11.5698L95.0724 13.0125C94.5459 12.2275 94.0514 11.8669 93.2758 11.8669C92.6816 11.8669 92.3045 12.0967 92.3045 12.5564C92.3045 12.9489 92.5358 13.1646 93.2438 13.4404L94.4961 13.9637C96.3924 14.7523 97.2818 15.7 97.2818 17.224C97.2818 19.3209 95.5492 20.601 93.29 20.601C91.3297 20.601 89.7465 19.6674 88.9531 18.1752L90.8743 16.736Z" fill="#46A358"/>
<path d="M98.9062 9.59277H101.742V13.5426H105.716V9.59277H108.551V20.4061H105.716V16.0815H101.742V20.4061H98.9062V9.59277Z" fill="#46A358"/>
<path d="M116.024 9.39484C119.19 9.32766 121.976 11.9019 121.908 14.9995C121.972 18.1289 119.19 20.6537 116.024 20.6042C112.843 20.6537 110.104 18.1289 110.171 14.9995C110.104 11.9019 112.843 9.33119 116.024 9.39484ZM116.038 11.9832C114.291 11.9832 113.071 13.2138 113.071 14.9995C113.071 15.9012 113.352 16.6367 113.896 17.1954C114.44 17.7364 115.166 18.0158 116.038 18.0158C117.721 18.0158 119.005 16.8029 119.005 14.9995C119.009 13.2138 117.721 11.9832 116.038 11.9832Z" fill="#46A358"/>
<path d="M123.531 9.59277H127.8C130.223 9.59277 132.006 11.0673 132.006 13.3127C132.006 15.5263 130.177 17.0468 127.8 17.0468H126.367V20.4061H123.531V9.59277ZM127.815 14.5892C128.605 14.5892 129.117 14.0801 129.117 13.3127C129.117 12.5454 128.605 12.0503 127.815 12.0503H126.363V14.5892H127.815Z" fill="#46A358"/>
</g>
<defs>
<clipPath id="clip0_42088_1672">
<rect width="132" height="30" fill="white"/>
</clipPath>
</defs>
</svg>
