<svg width="55" height="60" viewBox="0 0 55 60" fill="none" xmlns="http://www.w3.org/2000/svg">
<ellipse cx="24.5181" cy="35.3337" rx="24.5181" ry="24.6667" fill="#46A358" fill-opacity="0.13"/>
<g clip-path="url(#clip0_42091_2085)">
<path d="M14.746 27.1837C25.8604 26.0152 37.0703 27.8089 48.1575 26.1927C48.6754 26.1162 48.4546 25.3272 47.9394 25.4036C36.9313 27.0063 25.7841 25.2043 14.746 26.3647C14.228 26.4193 14.2226 27.2383 14.746 27.1837Z" fill="#727272"/>
<path d="M14.6368 26.3821C13.5518 26.7207 13.6881 28.1404 14.2633 28.8939C15.2065 30.128 17.3247 30.1553 18.7069 30.0242C19.2276 29.9751 19.2303 29.156 18.7069 29.2052C17.8127 29.2898 16.8858 29.2816 16.0162 29.025C15.5636 28.8912 15.0866 28.7028 14.8276 28.2769C14.694 28.0558 14.4377 27.3022 14.8548 27.1739C15.3565 27.0156 15.1411 26.2238 14.6368 26.3821Z" fill="#727272"/>
<path d="M46.2441 26.4499C46.8193 26.4144 47.3755 26.3161 47.9479 26.2397C48.8557 26.1168 49.3219 26.3625 49.48 27.3181C49.6109 28.1126 49.112 28.3446 48.4087 28.5685C48.0761 28.675 47.7271 28.7405 47.3836 28.8088C46.4649 28.989 45.5435 29.0791 44.6084 29.1118C44.085 29.1309 44.0823 29.95 44.6084 29.9309C46.2032 29.8735 50.6823 29.8135 50.5078 27.2881C50.4642 26.6574 49.8562 25.7865 49.2865 25.5025C48.4359 25.0766 47.111 25.5762 46.2414 25.6308C45.7207 25.6636 45.718 26.4827 46.2441 26.4499Z" fill="#727272"/>
<path d="M15.9421 29.8492C15.8303 31.5829 13.8675 32.563 12.8261 33.7534C12.0082 34.6898 11.3649 35.7682 10.8987 36.9177C9.89549 39.3803 9.70466 42.1405 10.2144 44.7369C11.264 50.0635 15.2823 54.4591 20.3011 56.3457C20.7946 56.5313 21.0072 55.7396 20.5192 55.5566C15.3069 53.5964 11.2558 48.6848 10.8033 43.0524C10.5879 40.3768 11.1522 37.592 12.6434 35.3396C13.8811 33.4722 16.6045 32.2763 16.7599 29.8492C16.7926 29.325 15.9748 29.325 15.9421 29.8492Z" fill="#727272"/>
<path d="M46.9313 29.4997C46.9313 31.6538 48.4934 33.0052 50.0827 34.2093C51.4485 35.2413 52.5062 36.246 53.1796 37.865C53.7657 39.271 54.0901 40.789 54.1637 42.3097C54.4309 47.9039 51.1868 53.0967 46.2007 55.5402C45.7291 55.7723 46.1407 56.4794 46.6123 56.2473C51.244 53.9785 54.5099 49.3673 54.9461 44.2017C55.1669 41.589 54.7144 38.7113 53.3895 36.4207C51.931 33.8953 47.7491 32.7377 47.7464 29.4997C47.7491 28.9728 46.9313 28.9728 46.9313 29.4997Z" fill="#727272"/>
<path d="M20.0583 55.7447C19.5294 56.9214 20.4781 57.937 21.6558 57.9916C22.9344 58.0544 24.2838 57.7568 25.5651 57.7022C27.0508 57.6367 28.5366 57.634 30.0223 57.6558C35.5673 57.7404 41.1095 58.1636 46.6299 57.4101C46.818 57.3855 46.9134 57.178 46.9298 57.0142C46.9734 56.5555 46.9352 56.217 46.8017 55.7856C46.6463 55.2833 45.8584 55.4989 46.0138 56.004C46.1528 56.3344 46.1855 56.6729 46.1119 57.0142C46.2128 56.8832 46.3109 56.7521 46.4118 56.6183C42.1073 57.2053 37.7645 57.0579 33.4354 56.9214C31.3363 56.8559 29.2345 56.7958 27.1353 56.8313C26.1757 56.8477 25.2161 56.8859 24.2565 56.9514C23.7331 56.9869 23.2124 57.036 22.6917 57.0879C22.3074 57.1261 20.1755 57.4565 20.7616 56.1515C20.977 55.6791 20.2737 55.2641 20.0583 55.7447Z" fill="#727272"/>
<path d="M14.6346 34.1488C11.3033 38.2523 11.0443 43.9802 14.0349 48.3485C14.1821 48.5642 14.5365 48.3594 14.3893 48.141C11.5078 43.9338 11.7068 38.4025 14.9263 34.4355C15.0872 34.2362 14.8009 33.9441 14.6346 34.1488Z" fill="#727272"/>
<path d="M14.8546 49.8692C15.1218 50.2569 15.4271 50.6145 15.7679 50.9394C15.9587 51.1196 16.2477 50.833 16.0568 50.65C15.7406 50.3497 15.4571 50.0221 15.2063 49.6644C15.0591 49.4488 14.7047 49.6508 14.8546 49.8692Z" fill="#727272"/>
<path d="M17.1417 52.2259C17.4061 52.2259 17.4061 51.8164 17.1417 51.8164C16.8773 51.8164 16.8773 52.2259 17.1417 52.2259Z" fill="#727272"/>
<path d="M46.1413 29.5212C45.9313 30.3075 45.7514 31.0992 46.0595 31.8855C46.3457 32.6145 46.9264 33.2724 47.4198 33.8758C48.603 35.3174 51.0238 36.7725 51.1383 38.782C51.1519 39.0441 51.5608 39.0468 51.5472 38.782C51.4627 37.2776 50.3559 36.3139 49.3363 35.3365C48.6793 34.7058 48.0605 34.0369 47.4934 33.3216C47.1118 32.8383 46.681 32.3278 46.4602 31.7463C46.1903 31.0391 46.3457 30.3429 46.5338 29.6331C46.602 29.3765 46.2067 29.2673 46.1413 29.5212Z" fill="#727272"/>
<path d="M51.3177 39.7327C51.375 40.2569 51.4322 40.7811 51.4895 41.3052C51.5167 41.5646 51.9284 41.5673 51.8984 41.3052C51.8411 40.7811 51.7839 40.2569 51.7266 39.7327C51.6994 39.4733 51.2904 39.4706 51.3177 39.7327Z" fill="#727272"/>
<path d="M51.3551 42.3835C51.3851 42.5364 51.3606 42.6811 51.3033 42.823C51.2624 42.9268 51.3497 43.0469 51.4451 43.0742C51.5623 43.107 51.655 43.0333 51.6959 42.9322C51.7804 42.7193 51.7913 42.4981 51.7477 42.2743C51.7013 42.0176 51.306 42.1268 51.3551 42.3835Z" fill="#727272"/>
<path d="M33.626 39.3885C34.6019 37.532 36.4394 36.317 38.5739 36.4235C41.1147 36.5491 43.7863 38.7633 42.0061 41.3788C40.962 42.9104 39.0864 43.9015 37.7043 45.1082C36.1695 46.4488 34.7655 47.9258 33.4706 49.5038C33.138 49.9079 33.7132 50.4894 34.0485 50.0826C36.0223 47.6774 38.255 45.6434 40.7085 43.7432C42.3469 42.4709 44.1598 40.5406 43.1647 38.3046C42.3414 36.4535 40.0678 35.5444 38.1514 35.599C35.8941 35.6645 33.9586 36.9969 32.9172 38.9735C32.6746 39.4404 33.3806 39.8554 33.626 39.3885Z" fill="#727272"/>
<path d="M33.4324 38.7517C31.685 36.7832 29.5041 34.7547 26.6743 34.9021C24.5752 35.0113 22.7678 36.6057 22.4652 38.7053C22.0917 41.2634 24 43.5077 25.8592 44.9902C28.1437 46.8112 31.5895 47.4419 33.2988 49.9099C33.596 50.3413 34.3048 49.9318 34.0049 49.4977C32.939 47.9579 31.3878 47.1661 29.7412 46.3689C27.6476 45.356 25.5839 44.1028 24.2372 42.148C22.7351 39.9721 22.9831 36.644 25.8947 35.8468C28.7435 35.0687 31.1425 37.4057 32.8517 39.3305C33.2034 39.7264 33.7813 39.1448 33.4324 38.7517Z" fill="#727272"/>
</g>
<g clip-path="url(#clip1_42091_2085)">
<path d="M30.795 8.41964C30.0072 9.85503 28.805 11.005 27.2621 11.6003C26.6597 11.8341 25.8664 11.8205 25.9455 10.9914C25.9945 10.4749 26.5506 10.0263 26.9541 9.78434C27.641 9.37113 28.5215 9.2352 29.2603 8.91441C29.74 8.70509 29.3257 8.00099 28.8486 8.21032C27.5293 8.78392 26.0845 8.91985 25.3348 10.3117C24.9341 11.0566 24.8033 12.0924 25.7056 12.5165C26.6842 12.9759 28.0308 12.2337 28.8432 11.7118C29.9717 10.9887 30.8577 10.0018 31.4983 8.83014C31.7545 8.37071 31.0485 7.95749 30.795 8.41964Z" fill="#46A358"/>
<path d="M29.0897 8.0792C28.0974 8.18794 27.1134 8.19337 26.1293 8.00851C25.7694 7.94055 25.4123 7.84812 25.0634 7.73666C24.769 7.64967 24.4855 7.54365 24.2047 7.41588C23.7876 6.88848 23.8285 6.59488 24.3328 6.52964C25.8103 5.39329 28.1193 6.58672 29.5695 7.13859C30.0629 7.32616 30.2755 6.53779 29.7876 6.35293C28.5254 5.87175 27.1406 5.14862 25.7531 5.30358C24.9571 5.39057 23.1225 5.73582 22.9099 6.73352C22.4192 9.04427 27.9039 9.02796 29.0897 8.89747C29.6076 8.83767 29.6131 8.02211 29.0897 8.0792Z" fill="#46A358"/>
<path d="M30.0545 6.36641C28.8141 5.38502 27.7128 3.85721 27.7728 2.20163C27.8001 1.4649 28.2689 1.15227 28.9477 1.48393C29.3212 1.66608 29.5801 2.13094 29.7846 2.48163C30.2589 3.30263 30.4579 4.24052 30.6324 5.16211C30.7305 5.67591 31.5183 5.45843 31.4202 4.94462C31.1585 3.56905 30.785 2.13638 29.7655 1.10878C29.1631 0.502544 28.1599 -0.193399 27.4511 0.62216C25.7937 2.52785 27.9636 5.74387 29.4765 6.94274C29.8854 7.26625 30.4688 6.69264 30.0545 6.36641Z" fill="#46A358"/>
<path d="M31.4005 5.17042C31.5804 3.86009 32.1529 1.3672 33.6631 0.94311C35.067 0.551642 34.928 2.80258 34.5354 3.54746C34.1401 4.29778 33.3632 5.00187 32.7989 5.62985C32.45 6.0186 33.0252 6.59765 33.3769 6.20618C34.1865 5.30363 35.3968 4.26787 35.5713 2.99832C35.7076 2.01421 35.634 0.527175 34.5463 0.0922107C33.554 -0.304695 32.5727 0.597857 32.0084 1.30739C31.177 2.35131 30.7899 3.64533 30.61 4.9475C30.5391 5.46674 31.3269 5.68966 31.4005 5.17042Z" fill="#46A358"/>
<path d="M33.4339 6.30997C34.3853 5.51616 36.1518 4.9643 37.313 5.67927C38.8178 6.60901 36.6861 7.16631 35.9828 7.21252C35.2304 7.26418 34.478 7.21796 33.7311 7.13097C33.2104 7.07116 33.2131 7.88672 33.7311 7.94653C34.9523 8.08789 36.6016 8.27003 37.7383 7.66652C38.4443 7.29136 38.9514 6.38337 38.5179 5.61946C38.0327 4.76313 36.667 4.55652 35.781 4.58099C34.6824 4.61361 33.6929 5.0377 32.8588 5.73364C32.4526 6.07074 33.0332 6.64707 33.4339 6.30997Z" fill="#46A358"/>
<path d="M33.5221 7.91924C34.3645 8.22915 35.2013 8.69674 35.6811 9.48511C36.2808 10.4747 36.2945 12.2961 34.5498 11.9563C33.0151 11.6572 31.9056 10.0315 31.5921 8.62062C31.4776 8.10953 30.6898 8.3243 30.8043 8.8381C31.0824 10.0941 31.7775 11.2032 32.8188 11.9726C33.6366 12.5788 35.0732 13.3019 36.0355 12.6141C37.025 11.9073 37.025 10.4448 36.578 9.4389C36.0491 8.25362 34.9233 7.56583 33.7457 7.13086C33.2441 6.95144 33.0314 7.73981 33.5221 7.91924Z" fill="#46A358"/>
<path d="M25.251 10.1647C22.863 11.6 21.102 13.1985 20.6849 16.0747C20.2297 19.1983 20.9575 22.4633 21.6227 25.5053C21.7344 26.0191 22.5223 25.8016 22.4105 25.2878C21.8217 22.5965 21.2192 19.8073 21.4019 17.0371C21.6009 14.0168 23.171 12.3667 25.6599 10.8715C26.1124 10.5996 25.7035 9.89281 25.251 10.1647Z" fill="#46A358"/>
<path d="M35.7901 9.24282C39.1294 9.5038 41.4928 12.1788 42.3897 15.2426C43.3656 18.5783 42.8204 22.0906 42.2888 25.4507C42.207 25.9645 42.9949 26.1847 43.0766 25.6682C43.6982 21.7263 44.3224 17.5398 42.7168 13.7393C41.501 10.8603 38.9767 8.67737 35.7901 8.42726C35.2639 8.38648 35.2667 9.20204 35.7901 9.24282Z" fill="#46A358"/>
<path d="M26.0618 11.8552C22.0683 14.7532 23.3631 21.3048 24.17 25.3772C24.2709 25.891 25.0614 25.6735 24.9578 25.1597C24.5353 23.0284 24.1427 20.8726 24.1836 18.6923C24.2245 16.5719 24.6252 13.8995 26.4735 12.5593C26.896 12.2521 26.4898 11.5453 26.0618 11.8552Z" fill="#46A358"/>
<path d="M30.5456 9.21885C29.0599 11.4997 28.1003 14.0497 27.7514 16.7519C27.5688 18.1683 27.5551 19.6036 27.7242 21.0227C27.9068 22.5723 28.4057 24.062 28.591 25.6116C28.651 26.1254 29.4715 26.1335 29.4088 25.6116C29.0872 22.9066 28.2584 20.4165 28.4765 17.649C28.7028 14.7755 29.6841 12.0407 31.2543 9.62935C31.5378 9.18895 30.8318 8.78117 30.5456 9.21885Z" fill="#46A358"/>
<path d="M32.5429 11.7387C33.7614 13.745 34.0176 16.015 34.2303 18.3067C34.4511 20.6909 34.631 23.0777 34.7836 25.4673C34.8164 25.9893 35.6342 25.992 35.6014 25.4673C35.4297 22.7624 35.2362 20.0574 34.9581 17.3607C34.74 15.2429 34.372 13.1687 33.2489 11.3255C32.9763 10.8797 32.2675 11.2875 32.5429 11.7387Z" fill="#46A358"/>
<path d="M36.264 12.1189C39.3089 15.9385 39.4098 20.8155 39.3007 25.4696C39.2898 25.9943 40.1076 25.9943 40.1185 25.4696C40.233 20.56 40.0367 15.5524 36.8419 11.5426C36.5148 11.1321 35.9396 11.7139 36.264 12.1189Z" fill="#46A358"/>
<path d="M31.1157 13.1145C31.0694 13.2966 31.0258 13.476 30.9794 13.6582C30.9167 13.9137 31.3093 14.0225 31.3747 13.7669C31.421 13.5848 31.4646 13.4053 31.511 13.2232C31.5737 12.9704 31.1811 12.8616 31.1157 13.1145Z" fill="#46A358"/>
<path d="M31.998 14.5298C31.998 14.7337 31.998 14.9376 31.998 15.1415C31.998 15.4052 32.4069 15.4052 32.4069 15.1415C32.4069 14.9376 32.4069 14.7337 32.4069 14.5298C32.4069 14.2661 31.998 14.2661 31.998 14.5298Z" fill="#46A358"/>
<path d="M30.0239 15.8217C30.0021 16.1153 29.9775 16.4116 29.9557 16.7052C29.9366 16.9662 30.3455 16.9662 30.3646 16.7052C30.3864 16.4116 30.411 16.1153 30.4328 15.8217C30.4519 15.5607 30.043 15.5607 30.0239 15.8217Z" fill="#46A358"/>
<path d="M32.6797 17.2486C32.6797 17.5204 32.6797 17.7923 32.6797 18.0641C32.6797 18.3278 33.0886 18.3278 33.0886 18.0641C33.0886 17.7923 33.0886 17.5204 33.0886 17.2486C33.0886 16.9849 32.6797 16.9849 32.6797 17.2486Z" fill="#46A358"/>
<path d="M31.1133 18.7437C31.1133 19.0373 31.1133 19.3336 31.1133 19.6272C31.1133 19.8909 31.5222 19.8909 31.5222 19.6272C31.5222 19.3336 31.5222 19.0373 31.5222 18.7437C31.5222 18.48 31.1133 18.48 31.1133 18.7437Z" fill="#46A358"/>
<path d="M30.2266 21.7349C30.2266 22.1427 30.2266 22.5504 30.2266 22.9582C30.2266 23.2219 30.6355 23.2219 30.6355 22.9582C30.6355 22.5504 30.6355 22.1427 30.6355 21.7349C30.6355 21.4712 30.2266 21.4712 30.2266 21.7349Z" fill="#46A358"/>
<path d="M29.0116 19.067C29.0579 19.3388 29.107 19.6107 29.1533 19.8825C29.197 20.1408 29.5922 20.032 29.5486 19.7738C29.5023 19.5019 29.4532 19.2301 29.4069 18.9582C29.3605 18.7027 28.9652 18.8114 29.0116 19.067Z" fill="#46A358"/>
<path d="M32.1397 23.0932C32.1615 23.3651 32.1861 23.6369 32.2079 23.9088C32.2297 24.1698 32.6386 24.1698 32.6168 23.9088C32.595 23.6369 32.5704 23.3651 32.5486 23.0932C32.5268 22.8323 32.1152 22.8295 32.1397 23.0932Z" fill="#46A358"/>
<path d="M33.3641 20.0356C33.3859 20.3075 33.4105 20.5793 33.4323 20.8512C33.4541 21.1094 33.863 21.1122 33.8412 20.8512C33.8194 20.5793 33.7948 20.3075 33.773 20.0356C33.7512 19.7746 33.3423 19.7719 33.3641 20.0356Z" fill="#46A358"/>
<path d="M38.0588 10.9337C38.375 11.2083 38.6912 11.4829 39.0074 11.7547C39.2064 11.926 39.4954 11.6378 39.2964 11.4666C38.9802 11.192 38.664 10.9174 38.3477 10.6456C38.1515 10.4743 37.8598 10.7597 38.0588 10.9337Z" fill="#46A358"/>
<path d="M38.2308 13.2034C38.4079 13.5214 38.5879 13.8422 38.7651 14.1603C38.8932 14.3886 39.2476 14.1847 39.1194 13.9537C38.9422 13.6356 38.7623 13.3148 38.5851 12.9967C38.4543 12.7684 38.1026 12.975 38.2308 13.2034Z" fill="#46A358"/>
<path d="M39.8667 13.3371C40.0684 13.6117 40.2701 13.8863 40.4718 14.1581C40.6245 14.3675 40.9816 14.1636 40.8262 13.9515C40.6245 13.6769 40.4228 13.4024 40.221 13.1305C40.0657 12.9239 39.7113 13.1251 39.8667 13.3371Z" fill="#46A358"/>
<path d="M40.8776 16.8924C40.9458 17.3681 41.0166 17.8438 41.0848 18.3196C41.1229 18.5778 41.5155 18.4691 41.4801 18.2108C41.4119 17.7351 41.341 17.2594 41.2729 16.7836C41.232 16.5254 40.8394 16.6368 40.8776 16.8924Z" fill="#46A358"/>
<path d="M39.5019 15.6722C39.5701 15.8979 39.6382 16.1262 39.7064 16.3519C39.7827 16.602 40.1752 16.4959 40.1016 16.2431C40.0335 16.0175 39.9653 15.7891 39.8972 15.5635C39.8209 15.3134 39.4256 15.4194 39.5019 15.6722Z" fill="#46A358"/>
<path d="M41.6709 20.7826C41.7009 21.1061 41.6954 21.4296 41.6436 21.7504C41.6027 22.0059 41.9953 22.1174 42.0389 21.8591C42.0961 21.5003 42.1152 21.1442 42.0825 20.7826C42.0552 20.5243 41.6463 20.5216 41.6709 20.7826Z" fill="#46A358"/>
<path d="M40.7207 22.0747C40.7207 22.3248 40.7207 22.5722 40.7207 22.8223C40.7207 23.086 41.1296 23.086 41.1296 22.8223C41.1296 22.5722 41.1296 22.3248 41.1296 22.0747C41.1296 21.811 40.7207 21.811 40.7207 22.0747Z" fill="#46A358"/>
<path d="M41.1432 15.262C41.2549 15.5339 41.3694 15.8057 41.4812 16.0776C41.5248 16.1809 41.6175 16.2516 41.732 16.219C41.8274 16.1945 41.9173 16.0694 41.8737 15.9689C41.762 15.697 41.6475 15.4252 41.5357 15.1533C41.4921 15.05 41.3994 14.9793 41.2849 15.0119C41.1895 15.0364 41.1023 15.1615 41.1432 15.262Z" fill="#46A358"/>
<path d="M40.3789 19.9673C40.3789 20.125 40.3789 20.2854 40.3789 20.443C40.3789 20.7067 40.7878 20.7067 40.7878 20.443C40.7878 20.2854 40.7878 20.125 40.7878 19.9673C40.7878 19.7036 40.3789 19.7036 40.3789 19.9673Z" fill="#46A358"/>
<path d="M41.199 24.521C41.1881 24.714 41.1418 24.8988 41.0709 25.0783C41.03 25.1816 41.1172 25.3012 41.2126 25.3284C41.3299 25.361 41.4225 25.2876 41.4634 25.187C41.5507 24.9723 41.5943 24.752 41.6079 24.521C41.6243 24.2573 41.2154 24.26 41.199 24.521Z" fill="#46A358"/>
<path d="M24.0498 12.5892C23.9108 12.7904 23.7717 12.9916 23.63 13.1927C23.48 13.4102 23.8344 13.6141 23.9844 13.3994C24.1234 13.1982 24.2624 12.997 24.4042 12.7958C24.5514 12.5784 24.197 12.3745 24.0498 12.5892Z" fill="#46A358"/>
<path d="M22.882 15.5637C22.8302 15.8111 22.7811 16.0585 22.7293 16.3086C22.6775 16.5641 23.0701 16.6756 23.1246 16.4173C23.1764 16.1699 23.2254 15.9225 23.2772 15.6724C23.329 15.4169 22.9338 15.3081 22.882 15.5637Z" fill="#46A358"/>
<path d="M22.7522 14.0817C22.5368 14.3671 22.376 14.6825 22.2669 15.0223C22.1852 15.2724 22.5804 15.3784 22.6622 15.131C22.7631 14.8238 22.913 14.5466 23.1065 14.2883C23.2646 14.0763 22.9075 13.8751 22.7522 14.0817Z" fill="#46A358"/>
<path d="M21.9201 16.7865C21.871 17.1264 21.8192 17.4635 21.7702 17.8033C21.732 18.0588 22.1273 18.1703 22.1654 17.912C22.2145 17.5722 22.2663 17.2351 22.3154 16.8953C22.3535 16.637 21.9583 16.5256 21.9201 16.7865Z" fill="#46A358"/>
<path d="M22.3294 18.7435C22.2939 19.0834 22.3158 19.4177 22.3812 19.7521C22.4302 20.0104 22.8255 19.9016 22.7764 19.6434C22.7192 19.3443 22.7083 19.0453 22.741 18.7435C22.7628 18.4826 22.3539 18.4853 22.3294 18.7435Z" fill="#46A358"/>
<path d="M22.6648 21.3269C22.6866 21.5308 22.7111 21.7347 22.7329 21.9386C22.7438 22.0473 22.8174 22.1425 22.9374 22.1425C23.0382 22.1425 23.1555 22.0501 23.1418 21.9386C23.12 21.7347 23.0955 21.5308 23.0737 21.3269C23.0628 21.2182 22.9892 21.123 22.8692 21.123C22.7684 21.123 22.6539 21.2155 22.6648 21.3269Z" fill="#46A358"/>
<path d="M22.0015 22.8601C22.1596 23.1183 22.2741 23.3902 22.345 23.6865C22.4077 23.942 22.8002 23.8333 22.7403 23.5777C22.6612 23.2515 22.5304 22.9416 22.3559 22.6534C22.2169 22.4305 21.8652 22.6371 22.0015 22.8601Z" fill="#46A358"/>
<path d="M22.8736 24.5753C22.92 24.6895 22.9636 24.801 23.0099 24.9151C23.0508 25.0157 23.1462 25.0891 23.2607 25.0565C23.3588 25.0293 23.4461 24.9097 23.4025 24.8064C23.3561 24.6922 23.3125 24.5808 23.2662 24.4666C23.2253 24.366 23.1299 24.2926 23.0154 24.3252C22.92 24.3497 22.8327 24.472 22.8736 24.5753Z" fill="#46A358"/>
</g>
<defs>
<clipPath id="clip0_42091_2085">
<rect width="45.0602" height="32.6667" fill="white" transform="translate(9.94141 25.333)"/>
</clipPath>
<clipPath id="clip1_42091_2085">
<rect width="23.1928" height="26" fill="white" transform="translate(20.543)"/>
</clipPath>
</defs>
</svg>
