<svg width="60" height="60" viewBox="0 0 60 60" fill="none" xmlns="http://www.w3.org/2000/svg">
<ellipse cx="24.6668" cy="35.0561" rx="24.6668" ry="24.9438" fill="#46A358" fill-opacity="0.13"/>
<g clip-path="url(#clip0_42091_2087)">
<path d="M34.1994 29.6808C34.2127 30.0072 34.3053 30.316 34.4774 30.5939C34.6252 30.8365 35.0025 30.6049 34.8547 30.3645C34.7245 30.1506 34.6517 29.9234 34.6429 29.6741C34.6297 29.3896 34.1884 29.3984 34.1994 29.6808Z" fill="#46A358"/>
<path d="M39.8716 29.6525C39.8496 29.776 39.8253 29.8973 39.8032 30.0208C39.7812 30.1377 39.843 30.259 39.9621 30.2899C40.0724 30.3186 40.2092 30.248 40.2313 30.1311C40.2533 30.0076 40.2776 29.8863 40.2997 29.7628C40.3217 29.6459 40.26 29.5246 40.1408 29.4937C40.0305 29.465 39.8937 29.5356 39.8716 29.6525Z" fill="#46A358"/>
<path d="M42.8918 30.0916C43.1764 30.085 43.1676 29.6438 42.8829 29.6505C42.5983 29.6571 42.6071 30.0982 42.8918 30.0916Z" fill="#46A358"/>
<path d="M26.3195 30.8719C26.6041 30.8652 26.5953 30.4241 26.3107 30.4307C26.026 30.4374 26.0349 30.8785 26.3195 30.8719Z" fill="#46A358"/>
<path d="M34.3914 2.95781C32.6881 7.98002 31.7592 13.2404 31.6577 18.545C31.607 21.2116 31.7637 23.8804 32.1277 26.5227C32.2954 27.7403 32.5072 28.9534 32.7631 30.1554C32.9639 31.095 33.0676 32.1692 33.7648 32.886C34.0627 33.1926 34.5194 32.7139 34.2237 32.4096C33.4714 31.6354 33.3941 29.9988 33.2 28.9864C32.9551 27.7072 32.7609 26.4169 32.6175 25.12C32.3461 22.6673 32.2557 20.197 32.3417 17.7311C32.516 12.7552 33.4361 7.83445 35.0335 3.12102C35.1703 2.71739 34.526 2.55638 34.3914 2.95781Z" fill="#46A358"/>
<path d="M36.9593 3.04766C37.8506 8.06546 37.8727 13.1936 38.0514 18.2731C38.1353 20.6596 38.2787 23.0527 38.2301 25.4414C38.1794 27.9205 37.6962 30.2519 37.0453 32.634C36.9328 33.0464 37.5748 33.2074 37.6874 32.7972C38.2985 30.5673 38.7839 28.3661 38.8766 26.0458C38.9803 23.4541 38.806 20.8493 38.7155 18.2621C38.5346 13.1208 38.4971 7.93974 37.5947 2.86018C37.5197 2.44111 36.8843 2.63079 36.9593 3.04766Z" fill="#46A358"/>
<path d="M41.7529 11.6695C42.0552 18.5357 42.3287 25.4856 40.6519 32.2106C40.5482 32.6252 41.1903 32.7862 41.294 32.3738C42.984 25.5915 42.7215 18.5798 42.4148 11.6563C42.3949 11.2306 41.733 11.2417 41.7529 11.6695Z" fill="#46A358"/>
<path d="M39.8805 11.771C38.9428 12.8672 38.3162 14.142 38.0404 15.5603C37.9587 15.9771 38.6008 16.1425 38.6824 15.7235C38.9361 14.4133 39.4899 13.2443 40.357 12.2298C40.6328 11.9055 40.1585 11.4468 39.8805 11.771Z" fill="#46A358"/>
<path d="M46.4034 15.9881C46.388 20.9596 45.7217 25.8847 44.4155 30.682C44.303 31.0944 44.945 31.2554 45.0576 30.8452C46.377 25.9928 47.0499 21.0037 47.0654 15.9748C47.0654 15.5491 46.4034 15.5624 46.4034 15.9881Z" fill="#46A358"/>
<path d="M45.1443 14.509C43.4321 16.4918 42.5915 18.9335 41.987 21.4457C41.8877 21.8603 42.5297 22.0236 42.629 21.6089C43.2071 19.2158 43.9881 16.8624 45.623 14.9677C45.8988 14.6457 45.4223 14.1847 45.1443 14.509Z" fill="#46A358"/>
<path d="M29.1679 7.02211C30.3461 9.79679 31.2021 12.6729 31.7317 15.6395C31.8067 16.0586 32.4399 15.8667 32.3671 15.4498C31.8376 12.4833 30.9793 9.60711 29.8033 6.83243C29.6378 6.44644 29.0024 6.62951 29.1679 7.02211Z" fill="#46A358"/>
<path d="M27.9411 7.26294C27.5947 11.4735 27.255 15.737 27.9566 19.9321C28.6913 24.308 30.4961 28.5781 31.8839 32.7799C32.0163 33.1835 32.6517 32.996 32.5193 32.5902C31.1757 28.5164 29.4393 24.3742 28.6626 20.1482C27.8816 15.8936 28.25 11.5286 28.603 7.24971C28.6383 6.82623 27.9764 6.84167 27.9411 7.26294Z" fill="#46A358"/>
<path d="M23.7287 17.4355C25.9372 19.4912 27.7266 21.8953 29.068 24.5972C29.2578 24.9788 29.8204 24.6303 29.6329 24.2509C28.2671 21.5005 26.4359 19.05 24.1876 16.9569C23.8765 16.6679 23.4176 17.1444 23.7287 17.4355Z" fill="#46A358"/>
<path d="M22.2139 18.2845C23.9238 23.3927 26.2251 28.2715 29.0823 32.8372C29.3073 33.1989 29.8744 32.8548 29.6471 32.4909C26.8186 27.9716 24.5416 23.1501 22.8493 18.0948C22.7148 17.6933 22.0793 17.8786 22.2139 18.2845Z" fill="#46A358"/>
<path d="M26.0445 31.5247C25.0693 29.7823 23.6396 28.3332 21.8613 27.4112C21.4994 27.2237 21.153 27.2722 21.8547 27.2017C22.1106 27.1752 22.3754 27.1642 22.6313 27.1686C23.4653 27.1774 24.2199 27.3274 24.9369 27.7795C25.7709 28.3045 26.499 29.0588 27.2448 29.7006C27.5669 29.9786 28.0258 29.5021 27.7037 29.2242C26.7594 28.4081 25.8239 27.3891 24.6656 26.8818C24.0191 26.5973 23.3197 26.5135 22.6181 26.5113C22.1724 26.5091 21.2457 26.4253 20.8728 26.8047C20.1447 27.5413 21.5392 27.9758 21.9738 28.2339C23.4653 29.1117 24.6391 30.3734 25.4797 31.8776C25.6871 32.2437 26.2519 31.8975 26.0445 31.5247Z" fill="#46A358"/>
<path d="M46.1866 26.1525C46.8331 24.7122 48.3356 24.26 49.7653 23.9601C49.9749 23.916 50.0588 23.6381 49.9529 23.4704C49.1762 22.2441 47.762 22.1184 46.4359 22.2397C46.0145 22.2772 46.0233 22.9389 46.4492 22.9014C47.5193 22.8043 48.7438 22.7977 49.388 23.8167C49.4498 23.6535 49.5138 23.4903 49.5756 23.3271C47.9826 23.6601 46.3212 24.2358 45.6085 25.8304C45.4342 26.2164 46.0123 26.5407 46.1866 26.1525Z" fill="#46A358"/>
<path d="M23.6202 16.7956C23.329 17.1794 23.0024 17.658 22.5192 17.8124C22.0427 17.9646 21.533 17.7462 21.5705 17.1706C21.5992 16.7206 21.9853 16.392 22.3604 16.2045C22.7972 15.9861 23.9953 15.8825 23.6776 16.7206C23.5275 17.1198 24.1696 17.2764 24.3196 16.8838C24.6263 16.0744 23.8894 15.3663 23.1083 15.3509C22.2876 15.3355 21.3322 15.8803 21.0233 16.6588C20.7343 17.3801 21.0366 18.2822 21.8397 18.4873C22.8215 18.7366 23.5651 17.958 24.099 17.2566C24.3527 16.9169 23.8784 16.4559 23.6202 16.7956Z" fill="#46A358"/>
<path d="M29.3302 6.5263C28.9177 6.6035 28.3197 6.87259 27.9071 6.65202C27.4946 6.42925 27.5696 5.87564 27.8079 5.55582C28.0572 5.22277 28.4499 5.10146 28.8471 5.21175C29.1692 5.30218 30.1731 6.14473 29.4737 6.43587C29.0853 6.59688 29.2685 7.23431 29.6634 7.07109C30.4908 6.72701 30.4621 5.76977 29.9304 5.1544C29.3942 4.53241 28.4345 4.29641 27.7174 4.74856C27.0908 5.14558 26.7422 6.01018 27.082 6.70275C27.563 7.68646 28.6882 7.31592 29.52 7.16152C29.937 7.08212 29.745 6.4469 29.3302 6.5263Z" fill="#46A358"/>
<path d="M37.1932 2.48999C36.6195 2.63777 35.951 2.81201 35.3597 2.66865C34.5279 2.47014 34.497 1.51731 35.0817 1.02325C35.5495 0.628439 36.2665 0.584327 36.8336 0.756366C37.191 0.864442 37.6102 1.09824 37.7073 1.49084C37.7999 1.85918 37.6212 2.22311 37.2506 2.31354C36.838 2.415 37.0255 3.05022 37.4403 2.94876C38.4265 2.70614 38.6428 1.47761 38.036 0.75416C37.352 -0.0597169 35.9797 -0.198672 35.0596 0.251277C34.1948 0.674758 33.6674 1.81286 34.2433 2.68188C34.9096 3.68985 36.4121 3.37224 37.3807 3.1208C37.7933 3.01714 37.6058 2.38191 37.1932 2.48999Z" fill="#46A358"/>
<path d="M41.9125 8.99439C40.9616 8.82456 39.9202 9.10026 39.4855 10.0421C39.1325 10.8052 39.4656 11.7955 40.2864 12.0823C41.1138 12.3712 42.3692 12.0139 42.8281 11.2463C43.2672 10.5075 42.9495 9.57006 42.2567 9.12893C41.897 8.89955 41.5771 9.47963 41.9346 9.70681C42.3802 9.98913 42.5259 10.631 42.1618 11.0434C41.8375 11.4118 41.1447 11.5684 40.6747 11.4845C40.0702 11.3765 39.8363 10.7435 40.1386 10.2207C40.4695 9.64946 41.1513 9.53036 41.7514 9.63623C42.1684 9.71122 42.3317 9.06938 41.9125 8.99439Z" fill="#46A358"/>
<path d="M47.0437 12.6517C46.2075 12.5966 45.0492 12.7157 44.8638 13.7391C44.7116 14.5772 45.6648 15.6845 46.3951 15.9822C48.4801 16.8314 48.9257 12.5966 47.1276 12.7091C46.7039 12.7355 46.715 13.3972 47.1408 13.3707C47.7255 13.3332 47.5821 14.7162 47.4497 14.9897C47.1386 15.6403 46.5429 15.4021 46.1501 14.9875C45.8479 14.6677 45.3051 14.1008 45.6184 13.642C45.9207 13.2009 46.5958 13.2847 47.057 13.3134C47.4828 13.3421 47.4651 12.6804 47.0437 12.6517Z" fill="#46A358"/>
<path d="M35.09 4.16381C35.0238 4.38658 34.9554 4.60934 34.8892 4.83211C34.8076 5.10561 35.2356 5.21148 35.3172 4.94019C35.3834 4.71742 35.4518 4.49465 35.518 4.27188C35.5997 3.99838 35.1716 3.89251 35.09 4.16381Z" fill="#46A358"/>
<path d="M36.0313 4.20126C36.0335 4.34903 36.0379 4.4946 36.0401 4.64238C36.0467 4.92691 36.488 4.91809 36.4814 4.63356C36.4792 4.48578 36.4748 4.34021 36.4726 4.19243C36.4681 3.90791 36.0269 3.91673 36.0313 4.20126Z" fill="#46A358"/>
<path d="M35.7202 6.85526C36.0048 6.84864 35.996 6.40752 35.7114 6.41414C35.4289 6.41855 35.4378 6.85967 35.7202 6.85526Z" fill="#46A358"/>
<path d="M34.4016 7.10196C34.3817 7.34679 34.3618 7.59382 34.3442 7.83864C34.3354 7.95775 34.4589 8.057 34.5692 8.0548C34.6994 8.05259 34.7766 7.94893 34.7855 7.82982C34.8053 7.585 34.8252 7.33797 34.8428 7.09314C34.8517 6.97404 34.7281 6.87478 34.6178 6.87699C34.4876 6.87919 34.4104 6.98286 34.4016 7.10196Z" fill="#46A358"/>
<path d="M35.4454 7.81649C35.452 8.08558 35.4564 8.35466 35.463 8.62596C35.4697 8.91048 35.9109 8.90166 35.9043 8.61713C35.8977 8.34805 35.8933 8.07896 35.8867 7.80767C35.88 7.52314 35.4388 7.53196 35.4454 7.81649Z" fill="#46A358"/>
<path d="M36.2283 6.25528C36.2569 6.47585 36.2856 6.69641 36.3143 6.91477C36.3297 7.03387 36.4114 7.13312 36.5394 7.13092C36.6475 7.12871 36.771 7.02505 36.7556 6.90594C36.7269 6.68538 36.6982 6.46482 36.6695 6.24646C36.6541 6.12736 36.5724 6.0281 36.4445 6.03031C36.3342 6.03252 36.2106 6.13618 36.2283 6.25528Z" fill="#46A358"/>
<path d="M36.2911 9.56356C36.2933 9.68708 36.2955 9.80839 36.2977 9.9319C36.3043 10.2164 36.7456 10.2076 36.739 9.92308C36.7368 9.79957 36.7346 9.67825 36.7324 9.55474C36.7257 9.27021 36.2845 9.27903 36.2911 9.56356Z" fill="#46A358"/>
<path d="M35.3354 5.97917C35.3133 6.19753 35.3618 6.40265 35.4523 6.60116C35.5008 6.70923 35.6641 6.73129 35.7568 6.67394C35.8693 6.60557 35.8781 6.47985 35.8296 6.36957C35.7722 6.24385 35.7634 6.10489 35.7766 5.96814C35.7877 5.84904 35.6597 5.74978 35.5516 5.75199C35.4214 5.7564 35.3464 5.86007 35.3354 5.97917Z" fill="#46A358"/>
<path d="M33.7967 9.48139C33.7526 9.72842 33.7085 9.97325 33.6643 10.2203C33.6136 10.4982 34.0416 10.6085 34.0924 10.3284C34.1365 10.0813 34.1806 9.8365 34.2247 9.58947C34.2733 9.31156 33.8475 9.20128 33.7967 9.48139Z" fill="#46A358"/>
<path d="M35.0112 11.0032C34.9914 11.1752 34.9693 11.3473 34.9494 11.5193C34.9362 11.6384 34.9825 11.7553 35.1083 11.7884C35.212 11.8149 35.362 11.7487 35.3775 11.6296C35.3973 11.4576 35.4194 11.2855 35.4393 11.1135C35.4525 10.9944 35.4062 10.8775 35.2804 10.8444C35.1767 10.8157 35.0267 10.8841 35.0112 11.0032Z" fill="#46A358"/>
<path d="M34.6233 14.1425C34.6586 14.33 34.6365 14.5131 34.5769 14.6917C34.4865 14.9608 34.9145 15.0689 35.005 14.7998C35.091 14.544 35.0976 14.2815 35.0469 14.0168C35.0248 13.8999 34.8792 13.836 34.7733 13.869C34.6475 13.9065 34.599 14.0256 34.6233 14.1425Z" fill="#46A358"/>
<path d="M33.2749 12.3619C33.255 12.5339 33.233 12.7059 33.2131 12.878C33.1999 12.9971 33.2462 13.114 33.372 13.1471C33.4757 13.1735 33.6257 13.1074 33.6411 12.9883C33.661 12.8162 33.6831 12.6442 33.7029 12.4721C33.7162 12.353 33.6698 12.2361 33.5441 12.2031C33.4382 12.1766 33.2881 12.2428 33.2749 12.3619Z" fill="#46A358"/>
<path d="M36.2807 12.7133C36.3337 12.9581 36.3844 13.2029 36.4374 13.4455C36.497 13.7234 36.9206 13.5955 36.861 13.3198C36.8081 13.075 36.7573 12.8302 36.7044 12.5875C36.6448 12.3096 36.2234 12.4353 36.2807 12.7133Z" fill="#46A358"/>
<path d="M36.5684 15.9552C36.5728 16.2 36.5794 16.4448 36.5838 16.6896C36.5905 16.9742 37.0317 16.9653 37.0251 16.6808C37.0207 16.436 37.0141 16.1912 37.0097 15.9463C37.0052 15.6618 36.564 15.6706 36.5684 15.9552Z" fill="#46A358"/>
<path d="M36.0477 19.1886C36.0764 19.3607 36.1028 19.5305 36.1315 19.7025C36.1514 19.8194 36.3014 19.8812 36.4051 19.8503C36.5309 19.8128 36.5728 19.6937 36.5529 19.5768C36.5242 19.4048 36.4978 19.2349 36.4691 19.0629C36.4492 18.946 36.2992 18.8843 36.1955 18.9151C36.0697 18.9504 36.0278 19.0695 36.0477 19.1886Z" fill="#46A358"/>
<path d="M34.2481 17.5479C34.2503 17.6957 34.2547 17.8413 34.2569 17.9891C34.2635 18.2736 34.7048 18.2648 34.6982 17.9802C34.696 17.8325 34.6916 17.6869 34.6894 17.5391C34.6849 17.2546 34.2437 17.2634 34.2481 17.5479Z" fill="#46A358"/>
<path d="M33.0323 15.6597C33.0477 15.8428 33.03 16.0148 32.9771 16.1913C32.8955 16.4648 33.3235 16.5706 33.4051 16.2993C33.4691 16.0898 33.4912 15.8692 33.4735 15.6509C33.4493 15.3708 33.008 15.3774 33.0323 15.6597Z" fill="#46A358"/>
<path d="M33.5863 20.7369C33.5642 20.9089 33.5444 21.0809 33.5223 21.253C33.5069 21.3721 33.5554 21.489 33.6812 21.5221C33.7849 21.5485 33.9349 21.4824 33.9503 21.3633C33.9724 21.1912 33.9923 21.0192 34.0143 20.8471C34.0298 20.728 33.9812 20.6111 33.8555 20.5781C33.7496 20.5516 33.6017 20.6178 33.5863 20.7369Z" fill="#46A358"/>
<path d="M35.8354 23.2363C35.8641 23.3819 35.8905 23.5296 35.9192 23.6752C35.9413 23.7921 36.0869 23.8561 36.1928 23.823C36.3164 23.7855 36.3627 23.6664 36.3406 23.5495C36.312 23.4039 36.2855 23.2561 36.2568 23.1106C36.2347 22.9937 36.0891 22.9297 35.9832 22.9628C35.8596 23.0003 35.8133 23.1194 35.8354 23.2363Z" fill="#46A358"/>
<path d="M34.6429 25.7621C34.6958 26.0069 34.751 26.2495 34.8039 26.4944C34.8657 26.7723 35.2871 26.6443 35.2275 26.3686C35.1746 26.1238 35.1194 25.8812 35.0665 25.6364C35.0047 25.3585 34.5811 25.4842 34.6429 25.7621Z" fill="#46A358"/>
<path d="M37.106 27.3578C37.0597 27.5298 37.0156 27.7018 36.9692 27.8761C36.8964 28.1518 37.3245 28.2599 37.3973 27.9842C37.4436 27.8121 37.4877 27.6401 37.5341 27.4658C37.6069 27.1901 37.1788 27.0821 37.106 27.3578Z" fill="#46A358"/>
<path d="M36.7761 8.21597C36.8047 8.38801 36.8334 8.55784 36.8621 8.72988C36.882 8.84678 37.032 8.90854 37.1357 8.87766C37.2615 8.84016 37.3034 8.72106 37.2835 8.60416C37.2548 8.43212 37.2261 8.26229 37.1975 8.09025C37.1776 7.97335 37.0276 7.91159 36.9239 7.94247C36.8003 7.97997 36.7562 8.09907 36.7761 8.21597Z" fill="#46A358"/>
<path d="M36.8298 11.2445C36.8607 11.4651 36.8916 11.6835 36.9225 11.904C36.9401 12.0209 37.0173 12.1224 37.1475 12.1202C37.2556 12.118 37.3792 12.0143 37.3637 11.8952C37.3328 11.6746 37.302 11.4563 37.2711 11.2357C37.2534 11.1188 37.1762 11.0174 37.046 11.0196C36.9379 11.0218 36.8121 11.1276 36.8298 11.2445Z" fill="#46A358"/>
<path d="M40.1379 13.6923C40.0783 14.0386 40.0165 14.3827 39.957 14.729C39.9084 15.0069 40.3364 15.1172 40.385 14.8371C40.4446 14.4908 40.5063 14.1467 40.5659 13.8004C40.6145 13.5225 40.1864 13.4122 40.1379 13.6923Z" fill="#46A358"/>
<path d="M40.9961 13.0704C41.0005 13.2424 41.0027 13.4145 41.0072 13.5843C41.0138 13.8688 41.455 13.86 41.4484 13.5755C41.444 13.4034 41.4418 13.2314 41.4374 13.0616C41.4308 12.777 40.9917 12.7859 40.9961 13.0704Z" fill="#46A358"/>
<path d="M40.7579 15.4286C40.716 15.7969 40.6763 16.1653 40.6344 16.5336C40.6035 16.8159 41.0447 16.8027 41.0756 16.5248C41.1176 16.1564 41.1573 15.7881 41.1992 15.4198C41.2301 15.1396 40.7888 15.1507 40.7579 15.4286Z" fill="#46A358"/>
<path d="M39.6143 16.0743C39.5194 16.2728 39.4268 16.4713 39.3319 16.6676C39.2105 16.9235 39.5967 17.1396 39.718 16.8816C39.8129 16.6831 39.9056 16.4846 40.0004 16.2883C40.1218 16.0324 39.7357 15.8162 39.6143 16.0743Z" fill="#46A358"/>
<path d="M38.9496 14.8949C38.8922 15.0449 38.837 15.1927 38.7797 15.3426C38.7378 15.4551 38.8326 15.5831 38.9385 15.6117C39.0643 15.6448 39.1636 15.5632 39.2077 15.4529C39.2651 15.3029 39.3202 15.1552 39.3776 15.0052C39.4195 14.8927 39.3246 14.7648 39.2187 14.7361C39.093 14.703 38.9937 14.7824 38.9496 14.8949Z" fill="#46A358"/>
<path d="M40.2081 17.7922C40.1992 17.9885 40.1926 18.1848 40.1838 18.3811C40.1728 18.6657 40.614 18.6546 40.6251 18.3723C40.6339 18.176 40.6405 17.9797 40.6493 17.7834C40.6604 17.4989 40.2191 17.5099 40.2081 17.7922Z" fill="#46A358"/>
<path d="M41.1127 18.9506C41.1039 19.1337 41.095 19.3189 41.0862 19.502C41.0796 19.6211 41.1987 19.7204 41.3113 19.7182C41.437 19.7159 41.5209 19.6123 41.5275 19.4932C41.5363 19.3101 41.5451 19.1248 41.554 18.9418C41.5606 18.8227 41.4414 18.7234 41.3289 18.7256C41.2031 18.7278 41.1193 18.8315 41.1127 18.9506Z" fill="#46A358"/>
<path d="M40.7656 20.9222C40.7458 21.081 40.7237 21.242 40.7039 21.4008C40.6884 21.5177 40.7392 21.6368 40.8627 21.6699C40.9686 21.6963 41.1165 21.6302 41.1319 21.5111C41.1518 21.3522 41.1738 21.1912 41.1937 21.0324C41.2091 20.9155 41.1584 20.7964 41.0348 20.7633C40.9289 20.7347 40.7811 20.803 40.7656 20.9222Z" fill="#46A358"/>
<path d="M39.1208 19.5598C39.0988 19.6944 39.0767 19.8311 39.0546 19.9657C39.0348 20.0826 39.0921 20.2017 39.2135 20.2348C39.3216 20.2612 39.4628 20.1929 39.4827 20.076C39.5047 19.9414 39.5268 19.8047 39.5489 19.6701C39.5687 19.5532 39.5114 19.4341 39.39 19.401C39.2819 19.3724 39.1407 19.4407 39.1208 19.5598Z" fill="#46A358"/>
<path d="M39.4376 23.0665C39.4398 23.1635 39.442 23.2628 39.4442 23.3598C39.4508 23.6444 39.8921 23.6355 39.8855 23.351C39.8833 23.254 39.8811 23.1547 39.8788 23.0577C39.8722 22.7731 39.431 22.782 39.4376 23.0665Z" fill="#46A358"/>
<path d="M40.8634 24.3604C40.8656 24.4575 40.8678 24.5567 40.87 24.6538C40.8766 24.9383 41.3179 24.9295 41.3112 24.645C41.309 24.5479 41.3068 24.4487 41.3046 24.3516C41.298 24.0671 40.8567 24.0759 40.8634 24.3604Z" fill="#46A358"/>
<path d="M39.5913 27.0343C39.6089 27.2064 39.5913 27.3652 39.5361 27.5284C39.4986 27.6409 39.5869 27.7688 39.695 27.7975C39.8185 27.8284 39.9244 27.7512 39.9642 27.6387C40.0303 27.4424 40.0546 27.2328 40.0326 27.0277C40.0193 26.9086 39.9333 26.8094 39.8075 26.8116C39.695 26.8116 39.578 26.9152 39.5913 27.0343Z" fill="#46A358"/>
<path d="M40.1364 12.5744C40.079 12.6869 40.0195 12.7993 39.9621 12.9096C39.8319 13.1611 40.2158 13.3772 40.3482 13.1236C40.4056 13.0111 40.4651 12.8986 40.5225 12.7883C40.6527 12.5369 40.2688 12.3207 40.1364 12.5744Z" fill="#46A358"/>
<path d="M28.6929 8.38101C28.7327 8.6126 28.7746 8.8464 28.8143 9.07799C28.8342 9.19489 28.9842 9.25664 29.0879 9.22576C29.2136 9.18827 29.2578 9.06916 29.2357 8.95227C29.196 8.72068 29.1541 8.48688 29.1144 8.25529C29.0945 8.13839 28.9445 8.07663 28.8408 8.10751C28.715 8.14501 28.6709 8.26411 28.6929 8.38101Z" fill="#46A358"/>
<path d="M29.3484 9.83893C29.4499 10.0815 29.5536 10.3264 29.6551 10.569C29.7014 10.6793 29.8073 10.7543 29.9287 10.7168C30.0324 10.6859 30.1228 10.5536 30.0765 10.4433C29.975 10.2007 29.8713 9.95583 29.7698 9.71321C29.7235 9.60293 29.6176 9.52793 29.4962 9.56543C29.3925 9.59631 29.3021 9.72865 29.3484 9.83893Z" fill="#46A358"/>
<path d="M28.746 10.6533C28.6952 10.9929 28.6996 11.3172 28.7592 11.6524C28.8077 11.9303 29.2291 11.8046 29.1828 11.5267C29.1387 11.2753 29.1387 11.015 29.1762 10.7613C29.2137 10.4834 28.7857 10.3732 28.746 10.6533Z" fill="#46A358"/>
<path d="M29.586 11.9277C29.661 12.135 29.7338 12.3445 29.8089 12.5519C29.9037 12.8188 30.3274 12.6952 30.2325 12.4262C30.1575 12.2188 30.0847 12.0093 30.0096 11.802C29.9148 11.5351 29.4911 11.6586 29.586 11.9277Z" fill="#46A358"/>
<path d="M28.5586 12.8097C28.563 13.0545 28.5697 13.2993 28.5741 13.5441C28.5807 13.8287 29.022 13.8198 29.0153 13.5353C29.0109 13.2905 29.0043 13.0457 28.9999 12.8008C28.9955 12.5163 28.5542 12.5251 28.5586 12.8097Z" fill="#46A358"/>
<path d="M29.3868 13.6397C29.3912 13.8603 29.3956 14.0809 29.4 14.3014C29.4066 14.5859 29.8479 14.5771 29.8413 14.2926C29.8369 14.072 29.8325 13.8515 29.8281 13.6309C29.8214 13.3464 29.3802 13.3552 29.3868 13.6397Z" fill="#46A358"/>
<path d="M30.6206 14.0761C30.7088 14.332 30.7993 14.5878 30.8876 14.8437C30.9802 15.1106 31.4038 14.987 31.3112 14.718C31.2229 14.4621 31.1325 14.2062 31.0442 13.9504C30.9515 13.6835 30.5279 13.807 30.6206 14.0761Z" fill="#46A358"/>
<path d="M31.1036 16.2724C31.13 16.407 31.1587 16.5415 31.1852 16.6761C31.2095 16.793 31.3529 16.8569 31.4588 16.8238C31.5823 16.7863 31.6309 16.6672 31.6066 16.5503C31.5801 16.4158 31.5515 16.2812 31.525 16.1467C31.5007 16.0298 31.3573 15.9658 31.2514 15.9989C31.13 16.0342 31.0793 16.1555 31.1036 16.2724Z" fill="#46A358"/>
<path d="M29.8927 16.2968C29.9655 16.5041 30.0184 16.7159 30.0427 16.9342C30.0559 17.0533 30.142 17.1526 30.2677 17.1504C30.3781 17.1482 30.4972 17.0445 30.484 16.9254C30.4553 16.6674 30.4023 16.4159 30.3163 16.1711C30.2214 15.9042 29.7978 16.0277 29.8927 16.2968Z" fill="#46A358"/>
<path d="M28.7618 15.4171C28.7662 15.5891 28.7684 15.7612 28.7728 15.931C28.7794 16.2155 29.2207 16.2067 29.2141 15.9222C29.2096 15.7501 29.2074 15.5781 29.203 15.4083C29.1964 15.1237 28.7573 15.1325 28.7618 15.4171Z" fill="#46A358"/>
<path d="M29.2936 18.0531C29.3113 18.2737 29.3532 18.4898 29.426 18.6972C29.5209 18.964 29.9445 18.8405 29.8496 18.5714C29.7878 18.3994 29.7481 18.2252 29.7349 18.0443C29.715 17.762 29.2738 17.7708 29.2936 18.0531Z" fill="#46A358"/>
<path d="M30.2599 19.9299C30.2996 20.0644 30.3393 20.1989 30.379 20.3313C30.4584 20.6026 30.8821 20.4791 30.8026 20.2056C30.7629 20.071 30.7232 19.9387 30.6835 19.8041C30.6041 19.5328 30.1804 19.6564 30.2599 19.9299Z" fill="#46A358"/>
<path d="M30.7784 18.2277C30.8049 18.3247 30.8313 18.4218 30.8578 18.521C30.9328 18.7945 31.3565 18.6688 31.2814 18.3953C31.255 18.2983 31.2285 18.2012 31.202 18.102C31.127 17.8285 30.7034 17.9542 30.7784 18.2277Z" fill="#46A358"/>
<path d="M29.527 21.8953C29.5821 22.1136 29.6351 22.3342 29.6902 22.5526C29.7586 22.8283 30.1823 22.7025 30.1139 22.4268C30.0587 22.2085 30.0058 21.9879 29.9506 21.7696C29.8822 21.4939 29.4586 21.6196 29.527 21.8953Z" fill="#46A358"/>
<path d="M30.6232 25.1065C30.6629 25.2036 30.7004 25.3006 30.7401 25.3977C30.7842 25.5079 30.8923 25.5829 31.0137 25.5454C31.1196 25.5145 31.2056 25.3822 31.1615 25.2719C31.1218 25.1749 31.0843 25.0778 31.0446 24.9808C31.0004 24.8705 30.8923 24.7955 30.771 24.833C30.6651 24.8639 30.579 24.9962 30.6232 25.1065Z" fill="#46A358"/>
<path d="M44.9861 15.9664C44.8691 16.2024 44.75 16.4362 44.6331 16.6722C44.5051 16.9259 44.8912 17.142 45.0192 16.8862C45.1361 16.6502 45.2553 16.4164 45.3722 16.1804C45.5002 15.9267 45.114 15.7128 44.9861 15.9664Z" fill="#46A358"/>
<path d="M45.6052 16.5202C45.55 16.743 45.4927 16.9636 45.4375 17.1863C45.3669 17.462 45.795 17.5701 45.8656 17.2944C45.9207 17.0716 45.9781 16.8511 46.0332 16.6283C46.1016 16.3548 45.6736 16.2467 45.6052 16.5202Z" fill="#46A358"/>
<path d="M45.0608 18.628C45.0056 18.8133 44.9505 18.9986 44.8931 19.1838C44.8115 19.4573 45.2395 19.5632 45.3211 19.2919C45.3763 19.1066 45.4315 18.9214 45.4888 18.7361C45.5683 18.4648 45.1402 18.3567 45.0608 18.628Z" fill="#46A358"/>
<path d="M44.6896 17.7356C44.6433 17.8216 44.5947 17.9098 44.5484 17.9958C44.4116 18.2451 44.7977 18.4612 44.9345 18.2098C44.9809 18.1238 45.0294 18.0355 45.0757 17.9495C45.2125 17.7025 44.8264 17.4863 44.6896 17.7356Z" fill="#46A358"/>
<path d="M45.7805 17.8414C45.7606 18.0134 45.7408 18.1854 45.7209 18.3575C45.7077 18.4766 45.754 18.5935 45.8798 18.6266C45.9835 18.653 46.1335 18.5869 46.149 18.4678C46.1688 18.2957 46.1887 18.1237 46.2085 17.9516C46.2218 17.8325 46.1754 17.7156 46.0497 17.6826C45.9438 17.6561 45.7937 17.7223 45.7805 17.8414Z" fill="#46A358"/>
<path d="M43.7021 18.9855C43.658 19.1267 43.5918 19.2546 43.5123 19.3781C43.3579 19.6163 43.744 19.8303 43.8985 19.592C43.9999 19.4377 44.075 19.27 44.1301 19.0936C44.1654 18.9811 44.0816 18.8532 43.9713 18.8245C43.8477 18.7958 43.7374 18.8708 43.7021 18.9855Z" fill="#46A358"/>
<path d="M43.6881 20.8821C43.5933 21.0387 43.5469 21.2173 43.5557 21.4004C43.569 21.6827 44.0103 21.6761 43.997 21.3916C43.9926 21.2813 44.0147 21.1909 44.0742 21.0982C44.2221 20.8534 43.836 20.6395 43.6881 20.8821Z" fill="#46A358"/>
<path d="M44.8392 20.3972C44.795 20.545 44.7509 20.695 44.709 20.8427C44.6296 21.1162 45.0576 21.2221 45.137 20.9508C45.1812 20.803 45.2253 20.6531 45.2672 20.5053C45.3466 20.2318 44.9186 20.1259 44.8392 20.3972Z" fill="#46A358"/>
<path d="M44.4742 22.5723C44.4279 22.7334 44.3837 22.8922 44.3374 23.0532C44.2602 23.3267 44.6882 23.4347 44.7654 23.1612C44.8118 23.0002 44.8559 22.8414 44.9022 22.6804C44.9795 22.4091 44.5514 22.301 44.4742 22.5723Z" fill="#46A358"/>
<path d="M45.8717 19.4399C45.8606 19.5391 45.8518 19.6362 45.8408 19.7354C45.8275 19.8545 45.9577 19.9538 46.0658 19.9516C46.1982 19.9494 46.2688 19.8457 46.2821 19.7266C46.2931 19.6273 46.3019 19.5303 46.3129 19.431C46.3262 19.3119 46.196 19.2127 46.0879 19.2149C45.9555 19.2193 45.8849 19.3207 45.8717 19.4399Z" fill="#46A358"/>
<path d="M43.1027 23.8517C43.0806 23.9267 43.0563 23.9994 43.0343 24.0744C42.9504 24.3457 43.3785 24.4538 43.4623 24.1825C43.4844 24.1075 43.5086 24.0347 43.5307 23.9597C43.6145 23.6884 43.1865 23.5826 43.1027 23.8517Z" fill="#46A358"/>
<path d="M42.7471 26.1039C42.7007 26.2274 42.6522 26.3509 42.6058 26.4744C42.5639 26.5847 42.6588 26.7148 42.7647 26.7435C42.8927 26.7766 42.9897 26.695 43.0339 26.5847C43.0802 26.4612 43.1287 26.3377 43.1751 26.2142C43.217 26.1039 43.1221 25.9737 43.0162 25.9451C42.8883 25.912 42.7912 25.9914 42.7471 26.1039Z" fill="#46A358"/>
<path d="M44.4844 25.2061C44.4867 25.2789 44.4867 25.3539 44.4889 25.4267C44.4955 25.7112 44.9367 25.7024 44.9301 25.4179C44.9279 25.3451 44.9279 25.2701 44.9257 25.1973C44.9191 24.9128 44.4778 24.9216 44.4844 25.2061Z" fill="#46A358"/>
<path d="M43.6607 28.1283C43.6497 28.2276 43.6409 28.3246 43.6298 28.4239C43.6166 28.543 43.7468 28.6422 43.8549 28.64C43.9873 28.6378 44.0579 28.5342 44.0711 28.4151C44.0821 28.3158 44.091 28.2188 44.102 28.1195C44.1152 28.0004 43.9851 27.9012 43.8769 27.9034C43.7468 27.9056 43.674 28.0092 43.6607 28.1283Z" fill="#46A358"/>
<path d="M23.5037 18.9312C23.5412 19.0525 23.5809 19.176 23.6184 19.2973C23.7022 19.5686 24.1258 19.4429 24.042 19.1716C24.0045 19.0503 23.9648 18.9268 23.9273 18.8055C23.8412 18.5342 23.4176 18.6599 23.5037 18.9312Z" fill="#46A358"/>
<path d="M23.9604 18.43C24.1082 18.613 24.2582 18.7961 24.406 18.977C24.4811 19.0696 24.6421 19.0498 24.7171 18.9704C24.8076 18.8755 24.7855 18.752 24.7105 18.6594C24.5627 18.4763 24.4127 18.2932 24.2648 18.1124C24.1898 18.0197 24.0288 18.0396 23.9537 18.119C23.8633 18.2116 23.8853 18.3373 23.9604 18.43Z" fill="#46A358"/>
<path d="M24.8067 19.9824C24.9346 20.1633 25.0626 20.3442 25.1884 20.5228C25.3517 20.7544 25.7289 20.525 25.5657 20.2934C25.4377 20.1126 25.3097 19.9317 25.184 19.753C25.0185 19.5215 24.6412 19.7486 24.8067 19.9824Z" fill="#46A358"/>
<path d="M24.2634 20.5099C24.3649 20.6797 24.4664 20.8495 24.5679 21.0194C24.7135 21.262 25.0908 21.0326 24.9452 20.79C24.8437 20.6201 24.7422 20.4503 24.6407 20.2805C24.4929 20.0357 24.1178 20.265 24.2634 20.5099Z" fill="#46A358"/>
<path d="M25.253 22.3296C25.381 22.559 25.5112 22.7884 25.6391 23.0178C25.7781 23.2648 26.1554 23.0354 26.0164 22.7884C25.8885 22.559 25.7583 22.3296 25.6303 22.1002C25.4891 21.8532 25.114 22.0826 25.253 22.3296Z" fill="#46A358"/>
<path d="M25.6437 21.661C25.732 21.7933 25.8202 21.9279 25.9085 22.0602C26.0651 22.2962 26.4424 22.0668 26.2858 21.8308C26.1975 21.6985 26.1093 21.5639 26.021 21.4316C25.8621 21.1956 25.4849 21.4228 25.6437 21.661Z" fill="#46A358"/>
<path d="M25.8488 20.7353C25.9216 20.8919 26.0452 21.0132 26.193 21.1014C26.4401 21.2448 26.6541 20.8588 26.407 20.7154C26.3188 20.6647 26.2658 20.5963 26.2239 20.5059C26.1731 20.3978 26.0143 20.3758 25.9194 20.4331C25.8113 20.5015 25.7981 20.6272 25.8488 20.7353Z" fill="#46A358"/>
<path d="M24.1942 21.8925C24.2229 22.0138 24.2493 22.1352 24.278 22.2587C24.3045 22.3756 24.4435 22.4395 24.5516 22.4064C24.673 22.3712 24.7259 22.2476 24.6994 22.1329C24.6707 22.0116 24.6443 21.8903 24.6156 21.7668C24.5891 21.6499 24.4501 21.586 24.342 21.619C24.2206 21.6543 24.1677 21.7778 24.1942 21.8925Z" fill="#46A358"/>
<path d="M25.586 24.1974C25.6875 24.4048 25.789 24.6121 25.8883 24.8172C25.9412 24.9253 26.0979 24.9473 26.1927 24.89C26.3031 24.8238 26.3185 24.6937 26.2656 24.5856C26.1641 24.3783 26.0626 24.171 25.9633 23.9658C25.9103 23.8578 25.7537 23.8357 25.6588 23.8931C25.5485 23.9614 25.533 24.0916 25.586 24.1974Z" fill="#46A358"/>
<path d="M27.2349 23.5736C27.3121 23.7192 27.3871 23.8648 27.4644 24.0103C27.5967 24.2618 27.9718 24.0302 27.8416 23.781C27.7644 23.6354 27.6894 23.4898 27.6122 23.3443C27.4776 23.0928 27.1025 23.3222 27.2349 23.5736Z" fill="#46A358"/>
<path d="M27.7356 26.7279C27.7996 26.8492 27.8636 26.9706 27.9298 27.0897C28.0643 27.3411 28.4394 27.1095 28.307 26.8603C28.2431 26.739 28.1791 26.6177 28.1129 26.4985C27.9783 26.2471 27.601 26.4765 27.7356 26.7279Z" fill="#46A358"/>
<path d="M28.5199 25.6096C28.5949 25.7309 28.6721 25.8522 28.7471 25.9735C28.8972 26.214 29.2745 25.9846 29.1244 25.7442C29.0494 25.6229 28.9722 25.5015 28.8972 25.3802C28.7449 25.1398 28.3676 25.3692 28.5199 25.6096Z" fill="#46A358"/>
<path d="M29.3983 29.0103C29.4601 29.1206 29.5241 29.2286 29.5858 29.3389C29.727 29.586 30.1021 29.3544 29.9631 29.1095C29.9013 28.9993 29.8374 28.8912 29.7756 28.7809C29.6344 28.5339 29.2571 28.7633 29.3983 29.0103Z" fill="#46A358"/>
<path d="M22.2829 27.6469C22.4307 27.7175 22.5807 27.7859 22.7286 27.8564C22.9845 27.9777 23.2007 27.5918 22.9426 27.4705C22.7947 27.3999 22.6447 27.3315 22.4969 27.2609C22.2432 27.1418 22.0269 27.5256 22.2829 27.6469Z" fill="#46A358"/>
<path d="M23.6869 28.2889C23.8501 28.4058 24.0134 28.5249 24.1745 28.6418C24.2715 28.7124 24.4216 28.6529 24.4745 28.5558C24.5385 28.4411 24.4856 28.3264 24.3885 28.2559C24.2252 28.139 24.0619 28.0199 23.9009 27.903C23.8038 27.8324 23.6538 27.8919 23.6008 27.989C23.539 28.1037 23.592 28.2184 23.6869 28.2889Z" fill="#46A358"/>
<path d="M23.472 27.6146C23.5846 27.6389 23.6883 27.6764 23.7898 27.7337C24.0391 27.8705 24.2531 27.4845 24.0038 27.3478C23.8714 27.275 23.728 27.2198 23.5802 27.1867C23.3044 27.125 23.194 27.5529 23.472 27.6146Z" fill="#46A358"/>
<path d="M24.7654 28.5565C24.8647 28.6271 24.964 28.6999 25.0633 28.7705C25.1603 28.8389 25.3104 28.7815 25.3633 28.6845C25.4273 28.5698 25.3744 28.4529 25.2773 28.3845C25.178 28.3139 25.0787 28.2411 24.9794 28.1705C24.8823 28.1022 24.7323 28.1595 24.6793 28.2566C24.6176 28.3713 24.6683 28.4859 24.7654 28.5565Z" fill="#46A358"/>
<path d="M24.7353 29.2158C24.786 29.2886 24.8368 29.3614 24.8875 29.4342C25.0486 29.6658 25.4259 29.4386 25.2648 29.2048C25.214 29.132 25.1633 29.0592 25.1126 28.9864C24.9515 28.7526 24.572 28.982 24.7353 29.2158Z" fill="#46A358"/>
<path d="M25.7339 29.5705C25.8331 29.6543 25.9324 29.7381 26.0339 29.822C26.1244 29.8992 26.259 29.9058 26.345 29.8153C26.4245 29.7337 26.4311 29.5793 26.3384 29.5044C26.2391 29.4205 26.1398 29.3367 26.0383 29.2529C25.9479 29.1757 25.8133 29.1691 25.7272 29.2595C25.6478 29.3389 25.6412 29.4933 25.7339 29.5705Z" fill="#46A358"/>
<path d="M48.5066 23.0725C48.2706 23.0283 48.0367 23.0327 47.8028 23.0923C47.527 23.1629 47.6528 23.5864 47.9286 23.5158C48.083 23.4761 48.2397 23.4695 48.3963 23.5003C48.6765 23.5533 48.7846 23.1254 48.5066 23.0725Z" fill="#46A358"/>
<path d="M46.9851 23.5297C46.9013 23.5936 46.8152 23.6554 46.7314 23.7194C46.6365 23.7899 46.5924 23.9134 46.6586 24.0237C46.7159 24.1186 46.866 24.1693 46.9631 24.0965C47.0469 24.0325 47.1329 23.9708 47.2168 23.9068C47.3117 23.8363 47.3558 23.7127 47.2896 23.6025C47.2322 23.5076 47.0822 23.4591 46.9851 23.5297Z" fill="#46A358"/>
<path d="M47.0558 23.3133C47.3404 23.3067 47.3316 22.8655 47.047 22.8721C46.7624 22.8788 46.7712 23.3199 47.0558 23.3133Z" fill="#46A358"/>
</g>
<g clip-path="url(#clip1_42091_2087)">
<path d="M24.9243 32.1008C23.3634 36.1556 22.2651 40.3929 21.9049 44.7443C21.5981 48.4636 21.6914 52.475 23.7058 55.7197C23.9371 56.0917 24.5063 55.7357 24.275 55.3615C22.254 52.1076 22.2584 48.0255 22.6097 44.3085C23.001 40.167 24.086 36.1305 25.5713 32.2697C25.7269 31.8612 25.0799 31.697 24.9243 32.1008Z" fill="#727272"/>
<path d="M45.1904 31.4731C48.7411 34.2112 48.7456 39.2312 49.128 43.3521C49.3214 45.4308 49.5883 47.5164 49.6816 49.6042C49.7683 51.5118 49.6127 53.538 48.1408 54.8889C47.8207 55.1832 48.3031 55.6556 48.6211 55.3635C49.9173 54.1747 50.3175 52.4725 50.362 50.7451C50.4265 48.2854 50.0196 45.7845 49.7928 43.3407C49.3948 39.0463 49.3459 33.8302 45.6506 30.9802C45.3127 30.7178 44.848 31.2084 45.1904 31.4731Z" fill="#727272"/>
<path d="M23.837 55.8559C25.7202 56.5519 27.6457 56.7253 29.6267 56.8964C31.819 57.0858 34.0313 57.371 36.2346 57.2912C38.4714 57.2113 40.7148 56.885 42.9382 56.6386C44.8836 56.4218 46.8135 56.148 48.6278 55.3539C49.0169 55.1828 48.8324 54.5233 48.4366 54.6968C46.5556 55.5205 44.559 55.7761 42.5424 55.9951C40.4435 56.2233 38.3313 56.5313 36.2213 56.6066C34.1535 56.6819 32.0813 56.4241 30.0225 56.2484C27.9703 56.0704 25.9559 55.9152 24.0015 55.1942C23.5969 55.0413 23.4368 55.7076 23.837 55.8559Z" fill="#727272"/>
<path d="M25.0829 32.4832C26.6348 33.1335 28.2201 33.7086 29.8943 33.9116C31.6353 34.1216 33.4095 33.8204 35.1616 33.866C36.1332 33.8911 37.007 34.0257 37.9875 33.882C38.8324 33.7565 39.6773 33.5831 40.4977 33.3435C42.1986 32.846 43.8461 32.1524 45.5159 31.5545C45.9183 31.4108 45.7316 30.7536 45.3247 30.8974C42.0563 32.0679 38.9925 33.4347 35.4639 33.1997C33.9965 33.1016 32.5357 33.3229 31.0727 33.3092C29.1028 33.2887 27.2085 32.6407 25.4031 31.8854C25.014 31.7211 24.6849 32.3167 25.0829 32.4832Z" fill="#727272"/>
<path d="M5.10858 34.5439C8.84388 35.1463 12.319 36.9604 14.9226 39.7875C17.4417 42.5234 18.858 46.1286 21.6062 48.6683C21.9241 48.9626 22.3888 48.4698 22.0686 48.1754C19.156 45.4829 17.6997 41.5879 14.8982 38.7881C12.2746 36.1663 8.88168 34.4618 5.27311 33.8799C4.85067 33.8115 4.68391 34.4755 5.10858 34.5439Z" fill="#727272"/>
<path d="M5.6901 33.3192C9.08077 32.5251 12.6849 32.9975 15.7309 34.7476C18.1611 36.1441 20.1555 38.3506 23.057 38.6518C23.4839 38.6951 23.4661 38.0106 23.0437 37.9672C19.7886 37.6295 17.4407 34.6198 14.5059 33.3831C11.6443 32.1783 8.50714 31.9593 5.50111 32.662C5.08089 32.7602 5.2721 33.4173 5.6901 33.3192Z" fill="#727272"/>
<path d="M5.14842 32.8604C4.89273 33.221 4.7282 33.6431 4.67039 34.0835C4.64593 34.2683 4.72375 34.4486 4.91274 34.4988C5.0706 34.5421 5.29294 34.4349 5.31739 34.2501C5.36853 33.8576 5.50416 33.513 5.73095 33.1913C5.83767 33.0407 5.74429 32.8102 5.60199 32.7258C5.43079 32.6277 5.25292 32.7121 5.14842 32.8604Z" fill="#727272"/>
<path d="M47.8732 33.4854C49.2517 30.7769 53.6318 30.4278 56.1042 31.6691C58.7834 33.0154 60.0196 36.2761 58.9213 39.1283C57.9652 41.6132 55.5083 42.8294 53.4873 44.2624C52.6357 44.867 51.6886 45.547 51.0994 46.4392C50.4835 47.3724 50.5635 48.559 49.9543 49.49C49.7142 49.8573 50.2989 50.1859 50.5368 49.8231C50.9215 49.2367 51.0327 48.6115 51.2039 47.9406C51.4462 47.0028 51.9309 46.4004 52.6268 45.7866C53.8252 44.7301 55.2304 43.9657 56.5067 43.0188C58.7656 41.3417 60.3509 38.9595 59.9307 35.9749C59.546 33.2572 57.416 31.0097 54.7857 30.5145C52.1355 30.0148 48.6425 30.4963 47.2885 33.1546C47.0906 33.5425 47.6731 33.8756 47.8732 33.4854Z" fill="#727272"/>
<path d="M48.5488 35.2084C49.4715 33.319 51.5726 32.8307 53.4803 32.9813C54.7521 33.0817 55.5369 33.5951 56.2017 34.7155C56.9377 35.9522 56.9021 36.9996 56.4863 38.3184C55.8326 40.3858 54.6542 41.3441 52.8422 42.3139C51.6549 42.9482 49.8428 43.7788 49.3692 45.1821C49.2292 45.5997 49.8762 45.764 50.0163 45.3509C50.4476 44.0731 52.5643 43.2426 53.6537 42.6516C54.5987 42.1405 55.4836 41.5769 56.1217 40.6755C57.1311 39.2517 57.9604 36.9265 57.2289 35.2403C56.3351 33.1776 54.9677 32.2626 52.7844 32.2785C50.8411 32.2922 48.8823 33.0041 47.9685 34.8752C47.7751 35.2677 48.3576 35.6008 48.5488 35.2084Z" fill="#727272"/>
<path d="M36.2044 40.1598C34.2434 40.4587 32.587 41.9555 32.3891 44.0479C32.2001 46.0422 33.5119 48.6389 35.7397 48.486C37.7719 48.3468 39.5773 46.3252 39.7641 44.3035C39.9709 42.0788 38.3456 40.1392 36.1377 40.2373C35.7086 40.2556 35.722 40.9401 36.1511 40.9219C38.0877 40.8352 39.4217 42.6515 39.0593 44.5636C38.7658 46.1107 37.3117 47.6714 35.7264 47.8038C33.7787 47.9658 32.7849 45.4353 33.0939 43.7924C33.3896 42.2179 34.7036 41.077 36.2178 40.8466C36.6358 40.7804 36.6291 40.0936 36.2044 40.1598Z" fill="#727272"/>
<path d="M36.587 40.4588C36.4692 39.0076 38.6904 36.8011 39.8021 38.4805C40.1467 39.0007 40.4802 39.9249 40.3379 40.566C40.1845 41.2529 39.5286 41.7663 39.0261 42.1884C38.6948 42.4668 39.1795 42.9391 39.5064 42.663C40.2979 41.999 41.1117 41.2027 41.0361 40.0641C40.9738 39.1331 40.4713 37.9055 39.6798 37.3944C37.99 36.3014 35.7844 38.8045 35.92 40.4748C35.9556 40.9106 36.6226 40.8992 36.587 40.4588Z" fill="#727272"/>
<path d="M39.6859 42.8152C40.5219 42.3063 42.6853 42.441 42.4607 43.9104C42.2473 45.3115 40.4797 45.3685 39.4324 45.3822C39.0033 45.3868 39.0167 46.0713 39.4458 46.0667C40.9154 46.0485 43.4857 45.5739 43.1188 43.4404C42.8298 41.7656 40.5263 41.5054 39.3368 42.231C38.9677 42.4569 39.3146 43.0411 39.6859 42.8152Z" fill="#727272"/>
<path d="M39.0126 46.1926C40.1821 46.722 41.4983 48.2942 40.3866 49.5628C39.0859 51.046 37.2049 49.5788 36.7247 48.1481C36.5846 47.7328 35.9443 47.9245 36.0844 48.3444C36.7069 50.1926 38.9503 51.7899 40.6801 50.2223C42.361 48.7003 41.0247 46.3592 39.3372 45.5925C38.9481 45.4168 38.6212 46.0146 39.0126 46.1926Z" fill="#727272"/>
<path d="M35.7641 48.319C35.8242 49.469 35.5107 51.1804 34.0032 50.975C33.3184 50.8814 32.7915 50.2494 32.8226 49.5329C32.8493 48.8894 33.2917 48.1387 33.5341 47.55C33.6986 47.1484 33.1183 46.8107 32.9515 47.2169C32.598 48.0794 31.9844 49.0857 32.2111 50.06C32.3957 50.8495 33.0027 51.477 33.7809 51.6344C35.7664 52.0383 36.5156 49.9368 36.4312 48.303C36.4089 47.8649 35.7419 47.8763 35.7641 48.319Z" fill="#727272"/>
<path d="M33.4438 46.6991C32.2009 47.2262 30.2821 47.0916 29.8486 45.492C29.6596 44.7892 29.8708 43.9587 30.5134 43.5776C31.1381 43.208 31.9452 43.3061 32.6256 43.3905C33.0458 43.443 33.2148 42.779 32.7901 42.7265C31.8474 42.6101 30.7779 42.5074 29.9664 43.1281C29.2927 43.6438 29.0192 44.5474 29.1482 45.3802C29.4817 47.532 31.9341 48.0728 33.6328 47.354C34.0285 47.1897 33.8418 46.5303 33.4438 46.6991Z" fill="#727272"/>
<path d="M33.0301 42.804C31.9073 42.1879 31.3203 39.9243 32.3053 38.9454C33.5993 37.6608 35.1891 39.4817 35.9717 40.4674C36.2429 40.8074 36.701 40.3122 36.4341 39.9745C35.4114 38.6876 33.1991 36.7184 31.6872 38.5735C30.5755 39.9403 31.2403 42.5986 32.7055 43.4041C33.0835 43.6117 33.4103 43.0139 33.0301 42.804Z" fill="#727272"/>
<path d="M34.1007 47.8351C33.5737 48.3553 33.2313 49.7632 34.0407 50.1899C35.0101 50.7033 35.4392 48.9577 35.5681 48.328C35.6259 48.0405 35.1946 47.9287 35.1368 48.2162C35.079 48.5014 35.0056 48.782 34.9033 49.0559C34.8522 49.1905 34.7966 49.3251 34.7299 49.4529C34.6276 49.6514 34.5676 49.7792 34.3319 49.7518C33.696 49.6719 34.1318 48.4375 34.4231 48.1523C34.6276 47.9469 34.3075 47.632 34.1007 47.8351Z" fill="#727272"/>
<path d="M36.9669 47.867C36.8535 48.5242 37.5784 49.0399 38.0964 49.2749C38.6211 49.5122 39.3526 49.5921 39.844 49.2201C40.3131 48.8642 40.2398 48.2184 40.0374 47.7256C39.7617 47.0547 39.1948 46.6029 38.5389 46.3656C38.2676 46.2675 38.1609 46.7124 38.4299 46.8083C38.8257 46.952 39.1814 47.1939 39.4327 47.5453C39.5194 47.6685 39.5861 47.7986 39.6417 47.94C39.7706 48.2732 39.7906 48.4238 39.5616 48.7136C39.366 48.96 39.2637 49.0171 38.9658 49.0193C38.779 49.0193 38.5856 48.9805 38.4099 48.9167C38.1409 48.8185 37.3293 48.385 37.3983 47.9834C37.4472 47.6913 37.0181 47.5772 36.9669 47.867Z" fill="#727272"/>
<path d="M39.5465 44.9148C40.1046 45.0586 40.6605 44.8121 41.1296 44.5086C41.472 44.2873 41.9233 43.8834 41.8833 43.4157C41.85 43.0255 41.472 42.8406 41.134 42.7996C40.5515 42.7266 39.9801 42.9844 39.5065 43.3084C39.2686 43.4704 39.4999 43.8629 39.7378 43.6986C39.9846 43.5275 40.2469 43.3769 40.5382 43.3016C40.8072 43.2308 41.5898 43.1167 41.3519 43.6895C41.1429 44.1983 40.1291 44.5931 39.6555 44.4721C39.3776 44.4014 39.2686 44.8441 39.5465 44.9148Z" fill="#727272"/>
<path d="M37.4719 40.6555C37.4363 40.3086 37.5074 39.9641 37.752 39.7085C37.9299 39.5191 38.3612 39.2681 38.6147 39.4142C38.8393 39.5442 38.8237 40.0919 38.8237 40.3451C38.8215 40.708 38.7459 41.0525 38.628 41.3925C38.5324 41.6686 38.9638 41.7781 39.0594 41.5043C39.2506 40.9521 39.3173 40.3725 39.2261 39.7907C39.1639 39.3914 39.0972 38.9943 38.6592 38.935C37.6898 38.8004 36.936 39.7245 37.0316 40.6669C37.0561 40.9544 37.5008 40.9475 37.4719 40.6555Z" fill="#727272"/>
<path d="M33.3427 42.1817C32.9981 41.7368 32.7024 40.929 32.818 40.3563C32.8869 40.0095 32.967 39.9091 33.3183 39.8726C33.6696 39.8361 33.7563 39.9433 34.0097 40.1532C34.2676 40.3654 34.5189 40.5845 34.7746 40.799C34.9947 40.9838 35.3037 40.6575 35.0814 40.4704C34.4544 39.941 33.4472 38.7203 32.649 39.649C32.0309 40.37 32.4467 41.7573 32.9625 42.4213C33.1382 42.6472 33.5206 42.4122 33.3427 42.1817Z" fill="#727272"/>
<path d="M32.5442 43.9588C31.6771 43.6028 30.5454 44.3946 30.6788 45.394C30.8033 46.341 32.2907 46.6924 32.96 46.1584C33.1823 45.9804 32.9533 45.588 32.7287 45.7682C32.3641 46.0603 31.4569 45.9827 31.1901 45.5469C30.7988 44.9148 31.7527 44.1185 32.3307 44.3581C32.5909 44.4653 32.8088 44.0683 32.5442 43.9588Z" fill="#727272"/>
</g>
<defs>
<clipPath id="clip0_42091_2087">
<rect width="29.3335" height="33.0337" fill="white" transform="translate(20.666)"/>
</clipPath>
<clipPath id="clip1_42091_2087">
<rect width="55.3336" height="26.9663" fill="white" transform="translate(4.66602 30.3369)"/>
</clipPath>
</defs>
</svg>
